<svg width="40" height="40" viewBox="0 0 40 40" fill="none" xmlns="http://www.w3.org/2000/svg">
<path d="M20 11.667V35.0003" stroke="currentColor" stroke-width="3.33333" stroke-linecap="round" stroke-linejoin="round"/>
<path d="M4.99992 30C4.55789 30 4.13397 29.8244 3.82141 29.5118C3.50885 29.1993 3.33325 28.7754 3.33325 28.3333V6.66667C3.33325 6.22464 3.50885 5.80072 3.82141 5.48816C4.13397 5.17559 4.55789 5 4.99992 5H13.3333C15.1014 5 16.7971 5.70238 18.0473 6.95262C19.2975 8.20286 19.9999 9.89856 19.9999 11.6667C19.9999 9.89856 20.7023 8.20286 21.9525 6.95262C23.2028 5.70238 24.8985 5 26.6666 5H34.9999C35.4419 5 35.8659 5.17559 36.1784 5.48816C36.491 5.80072 36.6666 6.22464 36.6666 6.66667V28.3333C36.6666 28.7754 36.491 29.1993 36.1784 29.5118C35.8659 29.8244 35.4419 30 34.9999 30H24.9999C23.6738 30 22.4021 30.5268 21.4644 31.4645C20.5267 32.4021 19.9999 33.6739 19.9999 35C19.9999 33.6739 19.4731 32.4021 18.5355 31.4645C17.5978 30.5268 16.326 30 14.9999 30H4.99992Z" stroke="currentColor" stroke-width="3.33333" stroke-linecap="round" stroke-linejoin="round"/>
</svg>
