<svg width="20" height="20" viewBox="0 0 20 20" fill="none" xmlns="http://www.w3.org/2000/svg">
<g clip-path="url(#clip0_507_2276)">
<path d="M18.1676 8.33332C18.5482 10.2011 18.2769 12.1428 17.3991 13.8348C16.5213 15.5268 15.09 16.8667 13.3438 17.6311C11.5977 18.3955 9.64227 18.5381 7.80367 18.0353C5.96506 17.5325 4.35441 16.4145 3.24031 14.8678C2.12622 13.3212 1.57602 11.4394 1.68147 9.53615C1.78692 7.63294 2.54165 5.8234 3.81979 4.4093C5.09793 2.9952 6.82223 2.06202 8.70514 1.76537C10.588 1.46872 12.5157 1.82654 14.1667 2.77916" stroke="currentColor" stroke-width="1.66667" stroke-linecap="round" stroke-linejoin="round"/>
<path d="M7.5 9.16665L10 11.6666L18.3333 3.33331" stroke="currentColor" stroke-width="1.66667" stroke-linecap="round" stroke-linejoin="round"/>
</g>
<defs>
<clipPath id="clip0_507_2276">
<rect width="20" height="20" fill="white"/>
</clipPath>
</defs>
</svg>
