<svg width="20" height="20" viewBox="0 0 20 20" fill="none" xmlns="http://www.w3.org/2000/svg">
<path d="M3.74992 13.75C2.49992 14.8 2.08325 17.9167 2.08325 17.9167C2.08325 17.9167 5.19992 17.5 6.24992 16.25C6.84159 15.55 6.83325 14.475 6.17492 13.825C5.85101 13.5159 5.42433 13.3372 4.97677 13.3234C4.52922 13.3095 4.09232 13.4615 3.74992 13.75Z" stroke="white" stroke-width="1.66667" stroke-linecap="round" stroke-linejoin="round"/>
<path d="M10 12.5L7.5 9.99998C7.94345 8.84951 8.50184 7.7467 9.16667 6.70832C10.1377 5.1558 11.4897 3.87752 13.0942 2.99506C14.6986 2.11259 16.5022 1.65529 18.3333 1.66665C18.3333 3.93332 17.6833 7.91665 13.3333 10.8333C12.2807 11.4989 11.164 12.0573 10 12.5Z" stroke="white" stroke-width="1.66667" stroke-linecap="round" stroke-linejoin="round"/>
<path d="M7.49992 10H3.33325C3.33325 10 3.79159 7.475 4.99992 6.66666C6.34992 5.76666 9.16659 6.66666 9.16659 6.66666" stroke="white" stroke-width="1.66667" stroke-linecap="round" stroke-linejoin="round"/>
<path d="M10 12.5V16.6666C10 16.6666 12.525 16.2083 13.3333 15C14.2333 13.65 13.3333 10.8333 13.3333 10.8333" stroke="white" stroke-width="1.66667" stroke-linecap="round" stroke-linejoin="round"/>
</svg>
