<svg width="444" height="277" viewBox="0 0 444 277" fill="none" xmlns="http://www.w3.org/2000/svg">
<rect x="0.900879" y="0.5" width="442.752" height="276" fill="white"/>
<g clip-path="url(#clip0_370_74)">
<path d="M123 223.78C123 228.02 126.45 231.48 130.7 231.48H312.62C316.86 231.48 320.32 228.03 320.32 223.78V52.7C320.32 48.46 316.86 45 312.62 45H130.7C126.45 45 123 48.45 123 52.7V223.78Z" stroke="black" stroke-width="2" stroke-miterlimit="10"/>
<path d="M203.944 80.96V72.056H205.444V80.96H203.944ZM210.293 81.044C209.637 81.044 209.053 80.904 208.541 80.624C208.029 80.336 207.625 79.944 207.329 79.448C207.033 78.952 206.885 78.388 206.885 77.756C206.885 77.116 207.033 76.552 207.329 76.064C207.625 75.568 208.029 75.18 208.541 74.9C209.053 74.62 209.637 74.48 210.293 74.48C210.957 74.48 211.545 74.62 212.057 74.9C212.577 75.18 212.981 75.564 213.269 76.052C213.565 76.54 213.713 77.108 213.713 77.756C213.713 78.388 213.565 78.952 213.269 79.448C212.981 79.944 212.577 80.336 212.057 80.624C211.545 80.904 210.957 81.044 210.293 81.044ZM210.293 79.76C210.661 79.76 210.989 79.68 211.277 79.52C211.565 79.36 211.789 79.128 211.949 78.824C212.117 78.52 212.201 78.164 212.201 77.756C212.201 77.34 212.117 76.984 211.949 76.688C211.789 76.384 211.565 76.152 211.277 75.992C210.989 75.832 210.665 75.752 210.305 75.752C209.937 75.752 209.609 75.832 209.321 75.992C209.041 76.152 208.817 76.384 208.649 76.688C208.481 76.984 208.397 77.34 208.397 77.756C208.397 78.164 208.481 78.52 208.649 78.824C208.817 79.128 209.041 79.36 209.321 79.52C209.609 79.68 209.933 79.76 210.293 79.76ZM218.051 83.372C217.459 83.372 216.879 83.292 216.311 83.132C215.751 82.98 215.291 82.756 214.931 82.46L215.603 81.332C215.883 81.564 216.235 81.748 216.659 81.884C217.091 82.028 217.527 82.1 217.967 82.1C218.671 82.1 219.187 81.936 219.515 81.608C219.843 81.288 220.007 80.804 220.007 80.156V79.016L220.127 77.564L220.079 76.112V74.552H221.507V79.988C221.507 81.148 221.211 82 220.619 82.544C220.027 83.096 219.171 83.372 218.051 83.372ZM217.859 80.672C217.251 80.672 216.699 80.544 216.203 80.288C215.715 80.024 215.327 79.66 215.039 79.196C214.759 78.732 214.619 78.188 214.619 77.564C214.619 76.948 214.759 76.408 215.039 75.944C215.327 75.48 215.715 75.12 216.203 74.864C216.699 74.608 217.251 74.48 217.859 74.48C218.403 74.48 218.891 74.588 219.323 74.804C219.755 75.02 220.099 75.356 220.355 75.812C220.619 76.268 220.751 76.852 220.751 77.564C220.751 78.276 220.619 78.864 220.355 79.328C220.099 79.784 219.755 80.124 219.323 80.348C218.891 80.564 218.403 80.672 217.859 80.672ZM218.087 79.4C218.463 79.4 218.799 79.324 219.095 79.172C219.391 79.012 219.619 78.796 219.779 78.524C219.947 78.244 220.031 77.924 220.031 77.564C220.031 77.204 219.947 76.888 219.779 76.616C219.619 76.336 219.391 76.124 219.095 75.98C218.799 75.828 218.463 75.752 218.087 75.752C217.711 75.752 217.371 75.828 217.067 75.98C216.771 76.124 216.539 76.336 216.371 76.616C216.211 76.888 216.131 77.204 216.131 77.564C216.131 77.924 216.211 78.244 216.371 78.524C216.539 78.796 216.771 79.012 217.067 79.172C217.371 79.324 217.711 79.4 218.087 79.4ZM223.479 80.96V74.552H224.979V80.96H223.479ZM224.235 73.496C223.955 73.496 223.723 73.408 223.539 73.232C223.363 73.056 223.275 72.844 223.275 72.596C223.275 72.34 223.363 72.128 223.539 71.96C223.723 71.784 223.955 71.696 224.235 71.696C224.515 71.696 224.743 71.78 224.919 71.948C225.103 72.108 225.195 72.312 225.195 72.56C225.195 72.824 225.107 73.048 224.931 73.232C224.755 73.408 224.523 73.496 224.235 73.496ZM230.584 74.48C231.096 74.48 231.552 74.58 231.952 74.78C232.36 74.98 232.68 75.288 232.912 75.704C233.144 76.112 233.26 76.64 233.26 77.288V80.96H231.76V77.48C231.76 76.912 231.624 76.488 231.352 76.208C231.088 75.928 230.716 75.788 230.236 75.788C229.884 75.788 229.572 75.86 229.3 76.004C229.028 76.148 228.816 76.364 228.664 76.652C228.52 76.932 228.448 77.288 228.448 77.72V80.96H226.948V74.552H228.376V76.28L228.124 75.752C228.348 75.344 228.672 75.032 229.096 74.816C229.528 74.592 230.024 74.48 230.584 74.48Z" fill="black"/>
<path d="M155.53 89.97H291.53" stroke="black" stroke-width="2" stroke-miterlimit="10"/>
<path d="M174.53 208.97H275.53" stroke="black" stroke-width="2" stroke-miterlimit="10"/>
<path d="M275.03 80.34L289.53 68.47" stroke="black" stroke-width="2" stroke-miterlimit="10"/>
<path d="M289.53 80.34L275.03 68.47" stroke="black" stroke-width="2" stroke-miterlimit="10"/>
<path d="M291.53 103.97H155.53V122.97H291.53V103.97Z" stroke="black" stroke-width="2" stroke-miterlimit="10"/>
<path d="M291.53 133.97H155.53V152.97H291.53V133.97Z" stroke="black" stroke-width="2" stroke-miterlimit="10"/>
<path d="M291.03 163.97H155.03V182.97H291.03V163.97Z" fill="#231F20" stroke="#231F20" stroke-width="2" stroke-miterlimit="10"/>
</g>
<defs>
<clipPath id="clip0_370_74">
<rect width="199.32" height="188.47" fill="white" transform="translate(122 44)"/>
</clipPath>
</defs>
</svg>
