<svg xmlns="http://www.w3.org/2000/svg" width="143.399" height="47.952" viewBox="0 0 143.399 47.952">
  <g id="Group_31" data-name="Group 31" transform="translate(0 0)">
    <path id="Path_2" data-name="Path 2" d="M29.357,6.419a3.181,3.181,0,0,1-3.411-3.2A3.182,3.182,0,0,1,29.357.006,3.812,3.812,0,0,1,31.3.549L30.864,1.77a3.139,3.139,0,0,0-1.489-.418,1.74,1.74,0,0,0-1.889,1.863,1.741,1.741,0,0,0,1.889,1.866,3.091,3.091,0,0,0,1.556-.458l.435,1.221a3.82,3.82,0,0,1-2.009.575" transform="translate(49.821 0.011)"/>
    <path id="Path_3" data-name="Path 3" d="M28.36.041V6.249h3.948V4.935h-2.5V3.726h2.281V2.47H29.805V1.361h2.5V.041Z" transform="translate(54.456 0.078)"/>
    <path id="Path_4" data-name="Path 4" d="M30.576,0l-.2.035V6.328h1.445V3.084l3.761,3.364.143-.026V.12H34.285V3.338Z" transform="translate(58.336 0)"/>
    <path id="Path_5" data-name="Path 5" d="M32.751.041v1.32h1.872V6.249h1.443V1.361h1.872V.041Z" transform="translate(62.888 0.078)"/>
    <path id="Path_6" data-name="Path 6" d="M35.066.041V6.249h3.948V4.935h-2.5V3.726h2.281V2.47H36.511V1.361h2.5V.041Z" transform="translate(67.332 0.078)"/>
    <path id="Path_7" data-name="Path 7" d="M39.1,1.314a3.167,3.167,0,0,0-.561.041V3.066a4.262,4.262,0,0,0,.458.026c.689,0,1.133-.33,1.133-.958,0-.514-.409-.821-1.031-.821M40.38,6.278,39.317,4.254c-.085.006-.161.006-.248.006-.21,0-.33-.006-.534-.015V6.278H37.089V.128a15.451,15.451,0,0,1,1.837-.1c1.939,0,2.7.923,2.7,2.059a2.087,2.087,0,0,1-1.072,1.8l1.463,2.4Z" transform="translate(71.217 0.05)"/>
    <path id="Path_8" data-name="Path 8" d="M40.155.041v1.32h2.868L39.933,6.1l.044.152h5.288V4.935H42.281L45.368.2,45.324.041Z" transform="translate(76.679 0.078)"/>
    <path id="Path_9" data-name="Path 9" d="M45.072,2.564l.613,1.489H44.45ZM44.988.023,42.053,6.281h1.472l.467-1.124h2.152l.467,1.124h1.5L45.183.023Z" transform="translate(80.749 0.044)"/>
    <path id="Path_10" data-name="Path 10" d="M29.753,10.99,27.467,8.084V10.99H26.018V4.779h1.448v2.7l2.184-2.7h1.708L28.8,7.737l2.7,3.253Z" transform="translate(49.96 9.176)"/>
    <path id="Path_11" data-name="Path 11" d="M30.427,6.053a2.91,2.91,0,0,0-.561.044V7.8a4.262,4.262,0,0,0,.458.026c.689,0,1.133-.33,1.133-.958,0-.514-.409-.821-1.031-.821m1.285,4.964L30.649,8.993C30.564,9,30.488,9,30.4,9c-.21,0-.33-.006-.534-.015v2.032H28.421V4.867a15.451,15.451,0,0,1,1.837-.1c1.939,0,2.7.923,2.7,2.059a2.083,2.083,0,0,1-1.072,1.8l1.463,2.4Z" transform="translate(54.573 9.149)"/>
    <path id="Path_12" data-name="Path 12" d="M30.6,10.99V4.779h3.948V6.1h-2.5v1.11h2.281V8.467H32.05V9.676h2.5V10.99Z" transform="translate(58.767 9.176)"/>
    <path id="Path_13" data-name="Path 13" d="M35.383,7.305l-.622,1.489H36Zm1.539,3.717L36.455,9.9H34.3l-.467,1.127H32.364L35.3,4.762h.2l2.938,6.261Z" transform="translate(62.145 9.144)"/>
    <path id="Path_14" data-name="Path 14" d="M37.859,6.1v4.888H36.413V6.1H34.541V4.78H39.73V6.1Z" transform="translate(66.325 9.178)"/>
    <rect id="Rectangle_29" data-name="Rectangle 29" width="1.445" height="6.208" transform="translate(107.67 13.956)"/>
    <path id="Path_15" data-name="Path 15" d="M40.963,11.04h-.169L37.818,4.779h1.656L40.9,8.134l1.419-3.355h1.627Z" transform="translate(72.617 9.177)"/>
    <path id="Path_16" data-name="Path 16" d="M45.556,11.186,41.8,7.822v3.244H40.35V4.773l.2-.035,3.709,3.338V4.858H45.7v6.3Z" transform="translate(77.479 9.098)"/>
    <path id="Path_17" data-name="Path 17" d="M46,6.033a1.721,1.721,0,0,0-1.65,1.921,1.669,1.669,0,1,0,3.3,0A1.721,1.721,0,0,0,46,6.033m-.026,5.125a3.043,3.043,0,0,1-3.163-3.2,3.091,3.091,0,0,1,3.221-3.209,3.05,3.05,0,0,1,3.165,3.209,3.1,3.1,0,0,1-3.224,3.2" transform="translate(82.199 9.111)"/>
    <path id="Path_18" data-name="Path 18" d="M47.531,11.158a4.2,4.2,0,0,1-2.1-.637l.4-1.3a3.1,3.1,0,0,0,1.74.6c.511,0,.71-.237.71-.543s-.164-.543-1.116-.923c-1.1-.441-1.481-1.075-1.481-1.822,0-.905.742-1.787,2.193-1.787a3.422,3.422,0,0,1,1.746.485l-.368,1.285a2.811,2.811,0,0,0-1.378-.508c-.526,0-.739.248-.739.5,0,.406.315.54,1.1.87C49.4,7.87,49.75,8.43,49.75,9.225a1.975,1.975,0,0,1-2.219,1.933" transform="translate(87.236 9.111)"/>
    <path id="Path_19" data-name="Path 19" d="M47.329,4.779V6.1H49.2v4.888h1.445V6.1h1.872V4.779Z" transform="translate(90.881 9.177)"/>
    <path id="Path_20" data-name="Path 20" d="M29.255,15.9a3.142,3.142,0,0,1-3.309-3.2,3.189,3.189,0,0,1,3.309-3.209,4.03,4.03,0,0,1,2.059.593l-.28.575A3.984,3.984,0,0,0,29.2,10.12a2.406,2.406,0,0,0-2.508,2.573,2.445,2.445,0,0,0,2.567,2.567,3.984,3.984,0,0,0,1.837-.531l.222.575a4,4,0,0,1-2.059.593" transform="translate(49.821 18.209)"/>
    <path id="Path_21" data-name="Path 21" d="M28.412,15.729V9.517h3.65v.613h-2.97v2.14h2.672v.613H29.093v2.234h2.97v.61Z" transform="translate(54.557 18.275)"/>
    <path id="Path_22" data-name="Path 22" d="M35.128,15.925,31.078,11.1v4.707H30.4V9.512l.137-.035,4,4.754V9.6h.68v6.3Z" transform="translate(58.369 18.198)"/>
    <path id="Path_23" data-name="Path 23" d="M35.431,10.128v5.6h-.68v-5.6H32.666v-.61h4.842v.61Z" transform="translate(62.724 18.276)"/>
    <path id="Path_24" data-name="Path 24" d="M36.485,10.113a4.494,4.494,0,0,0-.859.067v2.526c.2.023.517.041.756.041,1.165,0,1.667-.531,1.667-1.337,0-.73-.546-1.3-1.565-1.3m1.924,5.642-1.662-2.447c-.137.009-.272.018-.418.018-.2,0-.5-.009-.7-.018v2.447h-.68V9.605a10.558,10.558,0,0,1,1.437-.1c1.606,0,2.4.8,2.4,1.863a1.812,1.812,0,0,1-1.361,1.8l1.813,2.59Z" transform="translate(67.102 18.247)"/>
    <path id="Path_25" data-name="Path 25" d="M36.987,15.729V9.517h3.65v.613h-2.97v2.14h2.672v.613H37.667v2.234h2.97v.61Z" transform="translate(71.022 18.275)"/>
    <path id="Path_26" data-name="Path 26" d="M40.623,10.128v2.263h2.672V13H40.623v2.725h-.68V9.518h3.65v.61Z" transform="translate(76.696 18.276)"/>
    <path id="Path_27" data-name="Path 27" d="M44.864,10.093a2.43,2.43,0,0,0-2.374,2.6,2.379,2.379,0,1,0,4.737,0,2.426,2.426,0,0,0-2.362-2.6m-.035,5.8a3.093,3.093,0,0,1-3.078-3.2,3.148,3.148,0,0,1,3.136-3.209,3.1,3.1,0,0,1,3.081,3.209,3.141,3.141,0,0,1-3.139,3.2" transform="translate(80.169 18.209)"/>
    <path id="Path_28" data-name="Path 28" d="M46.129,10.113a4.513,4.513,0,0,0-.859.067v2.526c.2.023.517.041.756.041,1.165,0,1.667-.531,1.667-1.337,0-.73-.546-1.3-1.565-1.3m1.921,5.642-1.659-2.447c-.137.009-.272.018-.418.018-.2,0-.5-.009-.7-.018v2.447h-.68V9.605a10.558,10.558,0,0,1,1.437-.1c1.606,0,2.4.8,2.4,1.863a1.812,1.812,0,0,1-1.361,1.8l1.813,2.59Z" transform="translate(85.621 18.247)"/>
    <path id="Path_29" data-name="Path 29" d="M29.255,20.635a3.142,3.142,0,0,1-3.309-3.2,3.189,3.189,0,0,1,3.309-3.209,4.03,4.03,0,0,1,2.059.593l-.28.575a3.984,3.984,0,0,0-1.837-.531,2.406,2.406,0,0,0-2.508,2.573A2.446,2.446,0,0,0,29.255,20a3.984,3.984,0,0,0,1.837-.531l.222.575a4,4,0,0,1-2.059.593" transform="translate(49.821 27.308)"/>
    <path id="Path_30" data-name="Path 30" d="M29.955,14.852a4.513,4.513,0,0,0-.859.067v2.526c.2.023.517.041.756.041,1.165,0,1.667-.531,1.667-1.337,0-.73-.546-1.3-1.565-1.3m1.921,5.642-1.659-2.447c-.137.009-.272.018-.418.018-.2,0-.5-.009-.7-.018v2.447h-.68v-6.15a10.557,10.557,0,0,1,1.437-.1c1.606,0,2.4.8,2.4,1.863a1.815,1.815,0,0,1-1.364,1.8l1.813,2.59Z" transform="translate(54.564 27.347)"/>
    <path id="Path_31" data-name="Path 31" d="M30.456,14.257v6.211h3.65v-.613h-2.97V17.621h2.672v-.61H31.137V14.867h2.97v-.61Z" transform="translate(58.481 27.375)"/>
    <path id="Path_32" data-name="Path 32" d="M35.062,15.583l1.151,2.666h-2.3Zm-.041-1.364-2.8,6.319h.7l.742-1.72h2.789l.742,1.72h.73l-2.8-6.319Z" transform="translate(61.876 27.303)"/>
    <path id="Path_33" data-name="Path 33" d="M34.4,14.257v.61H36.49v5.6h.68v-5.6h2.073v-.61Z" transform="translate(66.063 27.375)"/>
    <rect id="Rectangle_30" data-name="Rectangle 30" width="0.68" height="6.211" transform="translate(107.159 41.63)"/>
    <path id="Path_34" data-name="Path 34" d="M42.42,14.257l-2.065,4.912-2.085-4.912h-.765l2.774,6.319h.108l2.771-6.319Z" transform="translate(72.018 27.375)"/>
    <rect id="Rectangle_31" data-name="Rectangle 31" width="0.68" height="6.211" transform="translate(116.86 41.63)"/>
    <path id="Path_35" data-name="Path 35" d="M40.886,14.257v.61h2.085v5.6h.68v-5.6h2.073v-.61Z" transform="translate(78.508 27.375)"/>
    <path id="Path_36" data-name="Path 36" d="M47.3,14.257,45.54,17.139l-1.787-2.882h-.765l2.187,3.449v2.762h.68V17.714l2.193-3.457Z" transform="translate(82.545 27.375)"/>
    <rect id="Rectangle_32" data-name="Rectangle 32" width="9.549" height="9.517" transform="translate(0 0.298)"/>
    <rect id="Rectangle_33" data-name="Rectangle 33" width="9.549" height="9.517" transform="translate(0 19.32)"/>
    <rect id="Rectangle_34" data-name="Rectangle 34" width="9.549" height="9.508" transform="translate(0 38.348)"/>
    <rect id="Rectangle_35" data-name="Rectangle 35" width="9.558" height="9.517" transform="translate(19.101 0.298)"/>
    <rect id="Rectangle_36" data-name="Rectangle 36" width="9.558" height="9.517" transform="translate(19.101 38.345)"/>
    <path id="Path_37" data-name="Path 37" d="M9.672,23.771,33.46,47.635V.109Z" transform="translate(18.573 0.209)"/>
  </g>
</svg>
