<svg width="444" height="277" viewBox="0 0 444 277" fill="none" xmlns="http://www.w3.org/2000/svg">
<rect x="0.900879" y="0.5" width="442.752" height="276" fill="white"/>
<g clip-path="url(#clip0_370_73)">
<path d="M78 231.53H366.29V45H78V231.53Z" stroke="black" stroke-width="2" stroke-miterlimit="10"/>
<path d="M173.1 45.5V231.5" stroke="black" stroke-width="2" stroke-miterlimit="10"/>
<path d="M273.1 45.5V231.5" stroke="black" stroke-width="2" stroke-miterlimit="10"/>
<path d="M104.906 66.074C104.29 66.074 103.734 65.938 103.238 65.666C102.75 65.386 102.366 65.002 102.086 64.514C101.806 64.026 101.666 63.45 101.666 62.786C101.666 62.122 101.806 61.546 102.086 61.058C102.366 60.57 102.75 60.19 103.238 59.918C103.734 59.646 104.29 59.51 104.906 59.51C105.442 59.51 105.922 59.63 106.346 59.87C106.77 60.102 107.106 60.458 107.354 60.938C107.602 61.418 107.726 62.034 107.726 62.786C107.726 63.53 107.606 64.146 107.366 64.634C107.126 65.114 106.794 65.474 106.37 65.714C105.946 65.954 105.458 66.074 104.906 66.074ZM105.086 64.79C105.446 64.79 105.766 64.71 106.046 64.55C106.334 64.39 106.562 64.158 106.73 63.854C106.906 63.55 106.994 63.194 106.994 62.786C106.994 62.37 106.906 62.014 106.73 61.718C106.562 61.414 106.334 61.182 106.046 61.022C105.766 60.862 105.446 60.782 105.086 60.782C104.726 60.782 104.402 60.862 104.114 61.022C103.834 61.182 103.606 61.414 103.43 61.718C103.262 62.014 103.178 62.37 103.178 62.786C103.178 63.194 103.262 63.55 103.43 63.854C103.606 64.158 103.834 64.39 104.114 64.55C104.402 64.71 104.726 64.79 105.086 64.79ZM107.03 65.99V64.478L107.09 62.774L106.97 61.07V57.086H108.458V65.99H107.03ZM110.432 65.99V59.582H111.86V61.346L111.692 60.83C111.884 60.398 112.184 60.07 112.592 59.846C113.008 59.622 113.524 59.51 114.14 59.51V60.938C114.076 60.922 114.016 60.914 113.96 60.914C113.904 60.906 113.848 60.902 113.792 60.902C113.224 60.902 112.772 61.07 112.436 61.406C112.1 61.734 111.932 62.226 111.932 62.882V65.99H110.432ZM118.904 65.99V64.694L118.82 64.418V62.15C118.82 61.71 118.688 61.37 118.424 61.13C118.16 60.882 117.76 60.758 117.224 60.758C116.864 60.758 116.508 60.814 116.156 60.926C115.812 61.038 115.52 61.194 115.28 61.394L114.692 60.302C115.036 60.038 115.444 59.842 115.916 59.714C116.396 59.578 116.892 59.51 117.404 59.51C118.332 59.51 119.048 59.734 119.552 60.182C120.064 60.622 120.32 61.306 120.32 62.234V65.99H118.904ZM116.888 66.074C116.408 66.074 115.988 65.994 115.628 65.834C115.268 65.666 114.988 65.438 114.788 65.15C114.596 64.854 114.5 64.522 114.5 64.154C114.5 63.794 114.584 63.47 114.752 63.182C114.928 62.894 115.212 62.666 115.604 62.498C115.996 62.33 116.516 62.246 117.164 62.246H119.024V63.242H117.272C116.76 63.242 116.416 63.326 116.24 63.494C116.064 63.654 115.976 63.854 115.976 64.094C115.976 64.366 116.084 64.582 116.3 64.742C116.516 64.902 116.816 64.982 117.2 64.982C117.568 64.982 117.896 64.898 118.184 64.73C118.48 64.562 118.692 64.314 118.82 63.986L119.072 64.886C118.928 65.262 118.668 65.554 118.292 65.762C117.924 65.97 117.456 66.074 116.888 66.074ZM122.449 65.99V59.222C122.449 58.55 122.645 58.014 123.037 57.614C123.437 57.206 124.005 57.002 124.741 57.002C125.005 57.002 125.253 57.03 125.485 57.086C125.725 57.142 125.925 57.23 126.085 57.35L125.677 58.478C125.565 58.39 125.437 58.326 125.293 58.286C125.149 58.238 125.001 58.214 124.849 58.214C124.537 58.214 124.301 58.302 124.141 58.478C123.981 58.646 123.901 58.902 123.901 59.246V59.966L123.949 60.638V65.99H122.449ZM121.393 60.83V59.63H125.665V60.83H121.393ZM129.086 66.074C128.382 66.074 127.838 65.894 127.454 65.534C127.07 65.166 126.878 64.626 126.878 63.914V58.166H128.378V63.878C128.378 64.182 128.454 64.418 128.606 64.586C128.766 64.754 128.986 64.838 129.266 64.838C129.602 64.838 129.882 64.75 130.106 64.574L130.526 65.642C130.35 65.786 130.134 65.894 129.878 65.966C129.622 66.038 129.358 66.074 129.086 66.074ZM125.822 60.83V59.63H130.094V60.83H125.822ZM133.74 66.074C133.204 66.074 132.688 66.006 132.192 65.87C131.704 65.726 131.316 65.554 131.028 65.354L131.604 64.214C131.892 64.398 132.236 64.55 132.636 64.67C133.036 64.79 133.436 64.85 133.836 64.85C134.308 64.85 134.648 64.786 134.856 64.658C135.072 64.53 135.18 64.358 135.18 64.142C135.18 63.966 135.108 63.834 134.964 63.746C134.82 63.65 134.632 63.578 134.4 63.53C134.168 63.482 133.908 63.438 133.62 63.398C133.34 63.358 133.056 63.306 132.768 63.242C132.488 63.17 132.232 63.07 132 62.942C131.768 62.806 131.58 62.626 131.436 62.402C131.292 62.178 131.22 61.882 131.22 61.514C131.22 61.106 131.336 60.754 131.568 60.458C131.8 60.154 132.124 59.922 132.54 59.762C132.964 59.594 133.464 59.51 134.04 59.51C134.472 59.51 134.908 59.558 135.348 59.654C135.788 59.75 136.152 59.886 136.44 60.062L135.864 61.202C135.56 61.018 135.252 60.894 134.94 60.83C134.636 60.758 134.332 60.722 134.028 60.722C133.572 60.722 133.232 60.79 133.008 60.926C132.792 61.062 132.684 61.234 132.684 61.442C132.684 61.634 132.756 61.778 132.9 61.874C133.044 61.97 133.232 62.046 133.464 62.102C133.696 62.158 133.952 62.206 134.232 62.246C134.52 62.278 134.804 62.33 135.084 62.402C135.364 62.474 135.62 62.574 135.852 62.702C136.092 62.822 136.284 62.994 136.428 63.218C136.572 63.442 136.644 63.734 136.644 64.094C136.644 64.494 136.524 64.842 136.284 65.138C136.052 65.434 135.72 65.666 135.288 65.834C134.856 65.994 134.34 66.074 133.74 66.074Z" fill="black"/>
<path d="M194.194 65.99V59.582H195.694V65.99H194.194ZM194.95 58.526C194.67 58.526 194.438 58.438 194.254 58.262C194.078 58.086 193.99 57.874 193.99 57.626C193.99 57.37 194.078 57.158 194.254 56.99C194.438 56.814 194.67 56.726 194.95 56.726C195.23 56.726 195.458 56.81 195.634 56.978C195.818 57.138 195.91 57.342 195.91 57.59C195.91 57.854 195.822 58.078 195.646 58.262C195.47 58.438 195.238 58.526 194.95 58.526ZM201.299 59.51C201.811 59.51 202.267 59.61 202.667 59.81C203.075 60.01 203.395 60.318 203.627 60.734C203.859 61.142 203.975 61.67 203.975 62.318V65.99H202.475V62.51C202.475 61.942 202.339 61.518 202.067 61.238C201.803 60.958 201.431 60.818 200.951 60.818C200.599 60.818 200.287 60.89 200.015 61.034C199.743 61.178 199.531 61.394 199.379 61.682C199.235 61.962 199.163 62.318 199.163 62.75V65.99H197.663V59.582H199.091V61.31L198.839 60.782C199.063 60.374 199.387 60.062 199.811 59.846C200.243 59.622 200.739 59.51 201.299 59.51ZM209.194 65.99V59.582H210.622V61.346L210.454 60.83C210.646 60.398 210.946 60.07 211.354 59.846C211.77 59.622 212.286 59.51 212.902 59.51V60.938C212.838 60.922 212.778 60.914 212.722 60.914C212.666 60.906 212.61 60.902 212.554 60.902C211.986 60.902 211.534 61.07 211.198 61.406C210.862 61.734 210.694 62.226 210.694 62.882V65.99H209.194ZM217.128 66.074C216.416 66.074 215.792 65.934 215.256 65.654C214.728 65.366 214.316 64.974 214.02 64.478C213.732 63.982 213.588 63.418 213.588 62.786C213.588 62.146 213.728 61.582 214.008 61.094C214.296 60.598 214.688 60.21 215.184 59.93C215.688 59.65 216.26 59.51 216.9 59.51C217.524 59.51 218.08 59.646 218.568 59.918C219.056 60.19 219.44 60.574 219.72 61.07C220 61.566 220.14 62.15 220.14 62.822C220.14 62.886 220.136 62.958 220.128 63.038C220.128 63.118 220.124 63.194 220.116 63.266H214.776V62.27H219.324L218.736 62.582C218.744 62.214 218.668 61.89 218.508 61.61C218.348 61.33 218.128 61.11 217.848 60.95C217.576 60.79 217.26 60.71 216.9 60.71C216.532 60.71 216.208 60.79 215.928 60.95C215.656 61.11 215.44 61.334 215.28 61.622C215.128 61.902 215.052 62.234 215.052 62.618V62.858C215.052 63.242 215.14 63.582 215.316 63.878C215.492 64.174 215.74 64.402 216.06 64.562C216.38 64.722 216.748 64.802 217.164 64.802C217.524 64.802 217.848 64.746 218.136 64.634C218.424 64.522 218.68 64.346 218.904 64.106L219.708 65.03C219.42 65.366 219.056 65.626 218.616 65.81C218.184 65.986 217.688 66.074 217.128 66.074ZM223.167 65.99L220.419 59.582H221.979L224.343 65.234H223.575L226.023 59.582H227.463L224.715 65.99H223.167ZM228.401 65.99V59.582H229.901V65.99H228.401ZM229.157 58.526C228.877 58.526 228.645 58.438 228.461 58.262C228.285 58.086 228.197 57.874 228.197 57.626C228.197 57.37 228.285 57.158 228.461 56.99C228.645 56.814 228.877 56.726 229.157 56.726C229.437 56.726 229.665 56.81 229.841 56.978C230.025 57.138 230.117 57.342 230.117 57.59C230.117 57.854 230.029 58.078 229.853 58.262C229.677 58.438 229.445 58.526 229.157 58.526ZM234.882 66.074C234.17 66.074 233.546 65.934 233.01 65.654C232.482 65.366 232.07 64.974 231.774 64.478C231.486 63.982 231.342 63.418 231.342 62.786C231.342 62.146 231.482 61.582 231.762 61.094C232.05 60.598 232.442 60.21 232.938 59.93C233.442 59.65 234.014 59.51 234.654 59.51C235.278 59.51 235.834 59.646 236.322 59.918C236.81 60.19 237.194 60.574 237.474 61.07C237.754 61.566 237.894 62.15 237.894 62.822C237.894 62.886 237.89 62.958 237.882 63.038C237.882 63.118 237.878 63.194 237.87 63.266H232.53V62.27H237.078L236.49 62.582C236.498 62.214 236.422 61.89 236.262 61.61C236.102 61.33 235.882 61.11 235.602 60.95C235.33 60.79 235.014 60.71 234.654 60.71C234.286 60.71 233.962 60.79 233.682 60.95C233.41 61.11 233.194 61.334 233.034 61.622C232.882 61.902 232.806 62.234 232.806 62.618V62.858C232.806 63.242 232.894 63.582 233.07 63.878C233.246 64.174 233.494 64.402 233.814 64.562C234.134 64.722 234.502 64.802 234.918 64.802C235.278 64.802 235.602 64.746 235.89 64.634C236.178 64.522 236.434 64.346 236.658 64.106L237.462 65.03C237.174 65.366 236.81 65.626 236.37 65.81C235.938 65.986 235.442 66.074 234.882 66.074ZM240.633 65.99L238.281 59.582H239.697L241.713 65.234H241.041L243.153 59.582H244.413L246.465 65.234H245.805L247.881 59.582H249.213L246.849 65.99H245.409L243.537 60.986H243.981L242.073 65.99H240.633Z" fill="black"/>
<path d="M302.194 65.99V59.582H303.622V61.346L303.454 60.83C303.646 60.398 303.946 60.07 304.354 59.846C304.77 59.622 305.286 59.51 305.902 59.51V60.938C305.838 60.922 305.778 60.914 305.722 60.914C305.666 60.906 305.61 60.902 305.554 60.902C304.986 60.902 304.534 61.07 304.198 61.406C303.862 61.734 303.694 62.226 303.694 62.882V65.99H302.194ZM310.128 66.074C309.416 66.074 308.792 65.934 308.256 65.654C307.728 65.366 307.316 64.974 307.02 64.478C306.732 63.982 306.588 63.418 306.588 62.786C306.588 62.146 306.728 61.582 307.008 61.094C307.296 60.598 307.688 60.21 308.184 59.93C308.688 59.65 309.26 59.51 309.9 59.51C310.524 59.51 311.08 59.646 311.568 59.918C312.056 60.19 312.44 60.574 312.72 61.07C313 61.566 313.14 62.15 313.14 62.822C313.14 62.886 313.136 62.958 313.128 63.038C313.128 63.118 313.124 63.194 313.116 63.266H307.776V62.27H312.324L311.736 62.582C311.744 62.214 311.668 61.89 311.508 61.61C311.348 61.33 311.128 61.11 310.848 60.95C310.576 60.79 310.26 60.71 309.9 60.71C309.532 60.71 309.208 60.79 308.928 60.95C308.656 61.11 308.44 61.334 308.28 61.622C308.128 61.902 308.052 62.234 308.052 62.618V62.858C308.052 63.242 308.14 63.582 308.316 63.878C308.492 64.174 308.74 64.402 309.06 64.562C309.38 64.722 309.748 64.802 310.164 64.802C310.524 64.802 310.848 64.746 311.136 64.634C311.424 64.522 311.68 64.346 311.904 64.106L312.708 65.03C312.42 65.366 312.056 65.626 311.616 65.81C311.184 65.986 310.688 66.074 310.128 66.074ZM318.353 65.99V64.694L318.269 64.418V62.15C318.269 61.71 318.137 61.37 317.873 61.13C317.609 60.882 317.209 60.758 316.673 60.758C316.313 60.758 315.957 60.814 315.605 60.926C315.261 61.038 314.969 61.194 314.729 61.394L314.141 60.302C314.485 60.038 314.893 59.842 315.365 59.714C315.845 59.578 316.341 59.51 316.853 59.51C317.781 59.51 318.497 59.734 319.001 60.182C319.513 60.622 319.769 61.306 319.769 62.234V65.99H318.353ZM316.337 66.074C315.857 66.074 315.437 65.994 315.077 65.834C314.717 65.666 314.437 65.438 314.237 65.15C314.045 64.854 313.949 64.522 313.949 64.154C313.949 63.794 314.033 63.47 314.201 63.182C314.377 62.894 314.661 62.666 315.053 62.498C315.445 62.33 315.965 62.246 316.613 62.246H318.473V63.242H316.721C316.209 63.242 315.865 63.326 315.689 63.494C315.513 63.654 315.425 63.854 315.425 64.094C315.425 64.366 315.533 64.582 315.749 64.742C315.965 64.902 316.265 64.982 316.649 64.982C317.017 64.982 317.345 64.898 317.633 64.73C317.929 64.562 318.141 64.314 318.269 63.986L318.521 64.886C318.377 65.262 318.117 65.554 317.741 65.762C317.373 65.97 316.905 66.074 316.337 66.074ZM324.418 66.074C323.802 66.074 323.246 65.938 322.75 65.666C322.262 65.386 321.878 65.002 321.598 64.514C321.318 64.026 321.178 63.45 321.178 62.786C321.178 62.122 321.318 61.546 321.598 61.058C321.878 60.57 322.262 60.19 322.75 59.918C323.246 59.646 323.802 59.51 324.418 59.51C324.954 59.51 325.434 59.63 325.858 59.87C326.282 60.102 326.618 60.458 326.866 60.938C327.114 61.418 327.238 62.034 327.238 62.786C327.238 63.53 327.118 64.146 326.878 64.634C326.638 65.114 326.306 65.474 325.882 65.714C325.458 65.954 324.97 66.074 324.418 66.074ZM324.598 64.79C324.958 64.79 325.278 64.71 325.558 64.55C325.846 64.39 326.074 64.158 326.242 63.854C326.418 63.55 326.506 63.194 326.506 62.786C326.506 62.37 326.418 62.014 326.242 61.718C326.074 61.414 325.846 61.182 325.558 61.022C325.278 60.862 324.958 60.782 324.598 60.782C324.238 60.782 323.914 60.862 323.626 61.022C323.346 61.182 323.118 61.414 322.942 61.718C322.774 62.014 322.69 62.37 322.69 62.786C322.69 63.194 322.774 63.55 322.942 63.854C323.118 64.158 323.346 64.39 323.626 64.55C323.914 64.71 324.238 64.79 324.598 64.79ZM326.542 65.99V64.478L326.602 62.774L326.482 61.07V57.086H327.97V65.99H326.542ZM330.472 68.402C330.16 68.402 329.848 68.35 329.536 68.246C329.224 68.142 328.964 67.998 328.756 67.814L329.356 66.71C329.508 66.846 329.68 66.954 329.872 67.034C330.064 67.114 330.26 67.154 330.46 67.154C330.732 67.154 330.952 67.086 331.12 66.95C331.288 66.814 331.444 66.586 331.588 66.266L331.96 65.426L332.08 65.246L334.504 59.582H335.944L332.944 66.506C332.744 66.986 332.52 67.366 332.272 67.646C332.032 67.926 331.76 68.122 331.456 68.234C331.16 68.346 330.832 68.402 330.472 68.402ZM331.792 66.218L328.9 59.582H330.46L332.812 65.114L331.792 66.218Z" fill="black"/>
<path d="M102.71 81.5601C101.65 81.5601 100.79 82.4201 100.79 83.4801V114.46C100.79 115.52 101.65 116.38 102.71 116.38H145.41C146.47 116.38 147.33 115.52 147.33 114.46V83.4801C147.33 82.4201 146.47 81.5601 145.41 81.5601H102.71Z" stroke="black" stroke-width="2" stroke-miterlimit="10"/>
<path d="M106.79 90H124.79" stroke="black" stroke-width="2" stroke-miterlimit="10"/>
<path d="M106.79 99H138.79" stroke="black" stroke-width="2" stroke-miterlimit="10"/>
<path d="M106.79 104H138.79" stroke="black" stroke-width="2" stroke-miterlimit="10"/>
<path d="M106.79 109H138.79" stroke="black" stroke-width="2" stroke-miterlimit="10"/>
<path d="M102.71 128.56C101.65 128.56 100.79 129.42 100.79 130.48V161.46C100.79 162.52 101.65 163.38 102.71 163.38H145.41C146.47 163.38 147.33 162.52 147.33 161.46V130.48C147.33 129.42 146.47 128.56 145.41 128.56H102.71Z" stroke="#FF0080" stroke-width="2" stroke-miterlimit="10"/>
<path d="M106.79 137H124.79" stroke="#FF0080" stroke-width="2" stroke-miterlimit="10"/>
<path d="M106.79 146H138.79" stroke="#FF0080" stroke-width="2" stroke-miterlimit="10"/>
<path d="M106.79 151H138.79" stroke="#FF0080" stroke-width="2" stroke-miterlimit="10"/>
<path d="M106.79 156H138.79" stroke="#FF0080" stroke-width="2" stroke-miterlimit="10"/>
<path d="M202.71 128.56C201.65 128.56 200.79 129.42 200.79 130.48V161.46C200.79 162.52 201.65 163.38 202.71 163.38H245.41C246.47 163.38 247.33 162.52 247.33 161.46V130.48C247.33 129.42 246.47 128.56 245.41 128.56H202.71Z" stroke="#F9D7E9" stroke-width="2" stroke-miterlimit="10"/>
<path d="M206.79 137H224.79" stroke="#F9D7E9" stroke-width="2" stroke-miterlimit="10"/>
<path d="M206.79 146H238.79" stroke="#F9D7E9" stroke-width="2" stroke-miterlimit="10"/>
<path d="M206.79 151H238.79" stroke="#F9D7E9" stroke-width="2" stroke-miterlimit="10"/>
<path d="M206.79 156H238.79" stroke="#F9D7E9" stroke-width="2" stroke-miterlimit="10"/>
<path d="M102.71 177.56C101.65 177.56 100.79 178.42 100.79 179.48V210.46C100.79 211.52 101.65 212.38 102.71 212.38H145.41C146.47 212.38 147.33 211.52 147.33 210.46V179.48C147.33 178.42 146.47 177.56 145.41 177.56H102.71Z" stroke="black" stroke-width="2" stroke-miterlimit="10"/>
<path d="M106.79 186H124.79" stroke="black" stroke-width="2" stroke-miterlimit="10"/>
<path d="M106.79 195H138.79" stroke="black" stroke-width="2" stroke-miterlimit="10"/>
<path d="M106.79 200H138.79" stroke="black" stroke-width="2" stroke-miterlimit="10"/>
<path d="M106.79 205H138.79" stroke="black" stroke-width="2" stroke-miterlimit="10"/>
<path d="M202.71 177.56C201.65 177.56 200.79 178.42 200.79 179.48V210.46C200.79 211.52 201.65 212.38 202.71 212.38H245.41C246.47 212.38 247.33 211.52 247.33 210.46V179.48C247.33 178.42 246.47 177.56 245.41 177.56H202.71Z" stroke="black" stroke-width="2" stroke-miterlimit="10"/>
<path d="M206.79 186H224.79" stroke="black" stroke-width="2" stroke-miterlimit="10"/>
<path d="M206.79 195H238.79" stroke="black" stroke-width="2" stroke-miterlimit="10"/>
<path d="M206.79 200H238.79" stroke="black" stroke-width="2" stroke-miterlimit="10"/>
<path d="M206.79 205H238.79" stroke="black" stroke-width="2" stroke-miterlimit="10"/>
<path d="M300.71 81.5601C299.65 81.5601 298.79 82.4201 298.79 83.4801V114.46C298.79 115.52 299.65 116.38 300.71 116.38H343.41C344.47 116.38 345.33 115.52 345.33 114.46V83.4801C345.33 82.4201 344.47 81.5601 343.41 81.5601H300.71Z" stroke="black" stroke-width="2" stroke-miterlimit="10"/>
<path d="M304.79 90H322.79" stroke="black" stroke-width="2" stroke-miterlimit="10"/>
<path d="M304.79 99H336.79" stroke="black" stroke-width="2" stroke-miterlimit="10"/>
<path d="M304.79 104H336.79" stroke="black" stroke-width="2" stroke-miterlimit="10"/>
<path d="M304.79 109H336.79" stroke="black" stroke-width="2" stroke-miterlimit="10"/>
<path d="M201.71 81.5601C200.65 81.5601 199.79 82.4201 199.79 83.4801V114.46C199.79 115.52 200.65 116.38 201.71 116.38H244.41C245.47 116.38 246.33 115.52 246.33 114.46V83.4801C246.33 82.4201 245.47 81.5601 244.41 81.5601H201.71Z" stroke="black" stroke-width="2" stroke-miterlimit="10"/>
<path d="M205.79 90H223.79" stroke="black" stroke-width="2" stroke-miterlimit="10"/>
<path d="M205.79 99H237.79" stroke="black" stroke-width="2" stroke-miterlimit="10"/>
<path d="M205.79 104H237.79" stroke="black" stroke-width="2" stroke-miterlimit="10"/>
<path d="M205.79 109H237.79" stroke="black" stroke-width="2" stroke-miterlimit="10"/>
<path d="M300.71 128.56C299.65 128.56 298.79 129.42 298.79 130.48V161.46C298.79 162.52 299.65 163.38 300.71 163.38H343.41C344.47 163.38 345.33 162.52 345.33 161.46V130.48C345.33 129.42 344.47 128.56 343.41 128.56H300.71Z" stroke="black" stroke-width="2" stroke-miterlimit="10"/>
<path d="M304.79 137H322.79" stroke="black" stroke-width="2" stroke-miterlimit="10"/>
<path d="M304.79 146H336.79" stroke="black" stroke-width="2" stroke-miterlimit="10"/>
<path d="M304.79 151H336.79" stroke="black" stroke-width="2" stroke-miterlimit="10"/>
<path d="M304.79 156H336.79" stroke="black" stroke-width="2" stroke-miterlimit="10"/>
<path d="M300.71 177.56C299.65 177.56 298.79 178.42 298.79 179.48V210.46C298.79 211.52 299.65 212.38 300.71 212.38H343.41C344.47 212.38 345.33 211.52 345.33 210.46V179.48C345.33 178.42 344.47 177.56 343.41 177.56H300.71Z" stroke="black" stroke-width="2" stroke-miterlimit="10"/>
<path d="M304.79 186H322.79" stroke="black" stroke-width="2" stroke-miterlimit="10"/>
<path d="M304.79 195H336.79" stroke="black" stroke-width="2" stroke-miterlimit="10"/>
<path d="M304.79 200H336.79" stroke="black" stroke-width="2" stroke-miterlimit="10"/>
<path d="M304.79 205H336.79" stroke="black" stroke-width="2" stroke-miterlimit="10"/>
<path d="M156.29 143.5H187.29" stroke="#FF0080" stroke-width="2" stroke-miterlimit="10"/>
<path d="M183.34 147.68L187.45 143.3L183.06 139.19" stroke="#FF0080" stroke-width="2" stroke-miterlimit="10"/>
</g>
<defs>
<clipPath id="clip0_370_73">
<rect width="290.29" height="188.53" fill="white" transform="translate(77 44)"/>
</clipPath>
</defs>
</svg>
