<svg width="552" height="632" viewBox="0 0 552 632" fill="none" xmlns="http://www.w3.org/2000/svg">
<mask id="path-1-inside-1_213_2142" fill="white">
<path d="M0 24C0 10.7451 10.7452 0 24 0H528C541.255 0 552 10.7452 552 24V608C552 621.255 541.255 632 528 632H24C10.7452 632 0 621.255 0 608V24Z"/>
</mask>
<path d="M0 24C0 10.7451 10.7452 0 24 0H528C541.255 0 552 10.7452 552 24V608C552 621.255 541.255 632 528 632H24C10.7452 632 0 621.255 0 608V24Z" fill="#313D3E" fill-opacity="0.1"/>
<path d="M24 0V1H528V0V-1H24V0ZM552 24H551V608H552H553V24H552ZM528 632V631H24V632V633H528V632ZM0 608H1V24H0H-1V608H0ZM24 632V631C11.2974 631 1 620.703 1 608H0H-1C-1 621.807 10.1929 633 24 633V632ZM552 608H551C551 620.703 540.703 631 528 631V632V633C541.807 633 553 621.807 553 608H552ZM528 0V1C540.703 1 551 11.2975 551 24H552H553C553 10.1929 541.807 -1 528 -1V0ZM24 0V-1C10.1929 -1 -1 10.1929 -1 24H0H1C1 11.2974 11.2975 1 24 1V0Z" fill="#313D3E" fill-opacity="0.3" mask="url(#path-1-inside-1_213_2142)"/>
<mask id="path-3-inside-2_213_2142" fill="white">
<path d="M33 33H519V86H33V33Z"/>
</mask>
<path d="M519 86V85H33V86V87H519V86Z" fill="#313D3E" fill-opacity="0.1" mask="url(#path-3-inside-2_213_2142)"/>
<path d="M45.5 69H51C51.5304 69 52.0391 68.7893 52.4142 68.4142C52.7893 68.0391 53 67.5304 53 67V54L48 49H39C38.4696 49 37.9609 49.2107 37.5858 49.5858C37.2107 49.9609 37 50.4696 37 51V60.5" stroke="#313D3E" stroke-width="2" stroke-linecap="round" stroke-linejoin="round"/>
<path d="M47 49V53C47 53.5304 47.2107 54.0391 47.5858 54.4142C47.9609 54.7893 48.4696 55 49 55H53" stroke="#313D3E" stroke-width="2" stroke-linecap="round" stroke-linejoin="round"/>
<path d="M46.378 62.6261C46.5752 62.4289 46.7317 62.1947 46.8384 61.937C46.9452 61.6793 47.0001 61.4031 47.0001 61.1241C47.0001 60.8452 46.9452 60.569 46.8384 60.3113C46.7317 60.0536 46.5752 59.8194 46.378 59.6221C46.1807 59.4249 45.9466 59.2684 45.6889 59.1617C45.4311 59.0549 45.1549 59 44.876 59C44.597 59 44.3208 59.0549 44.0631 59.1617C43.8054 59.2684 43.5712 59.4249 43.374 59.6221L38.364 64.6341C38.1262 64.8718 37.9522 65.1655 37.858 65.4881L37.021 68.3581C36.9959 68.4442 36.9944 68.5354 37.0166 68.6222C37.0389 68.7091 37.084 68.7883 37.1474 68.8517C37.2108 68.9151 37.2901 68.9603 37.3769 68.9825C37.4637 69.0048 37.5549 69.0032 37.641 68.9781L40.511 68.1411C40.8336 68.0469 41.1274 67.8729 41.365 67.6351L46.378 62.6261Z" stroke="#313D3E" stroke-width="2" stroke-linecap="round" stroke-linejoin="round"/>
<path d="M70.66 66V52H73.34L81.6 62.08H80.3V52H83.5V66H80.84L72.56 55.92H73.86V66H70.66ZM91.9323 66.16C90.7057 66.16 89.6257 65.92 88.6923 65.44C87.7723 64.96 87.059 64.3067 86.5523 63.48C86.0457 62.64 85.7923 61.6867 85.7923 60.62C85.7923 59.54 86.039 58.5867 86.5323 57.76C87.039 56.92 87.7257 56.2667 88.5923 55.8C89.459 55.32 90.439 55.08 91.5323 55.08C92.5857 55.08 93.5323 55.3067 94.3723 55.76C95.2257 56.2 95.899 56.84 96.3923 57.68C96.8857 58.5067 97.1323 59.5 97.1323 60.66C97.1323 60.78 97.1257 60.92 97.1123 61.08C97.099 61.2267 97.0857 61.3667 97.0723 61.5H88.3323V59.68H95.4323L94.2323 60.22C94.2323 59.66 94.119 59.1733 93.8923 58.76C93.6657 58.3467 93.3523 58.0267 92.9523 57.8C92.5523 57.56 92.0857 57.44 91.5523 57.44C91.019 57.44 90.5457 57.56 90.1323 57.8C89.7323 58.0267 89.419 58.3533 89.1923 58.78C88.9657 59.1933 88.8523 59.6867 88.8523 60.26V60.74C88.8523 61.3267 88.979 61.8467 89.2323 62.3C89.499 62.74 89.8657 63.08 90.3323 63.32C90.8123 63.5467 91.3723 63.66 92.0123 63.66C92.5857 63.66 93.0857 63.5733 93.5123 63.4C93.9523 63.2267 94.3523 62.9667 94.7123 62.62L96.3723 64.42C95.879 64.98 95.259 65.4133 94.5123 65.72C93.7657 66.0133 92.9057 66.16 91.9323 66.16ZM101.474 66L97.5942 55.24H100.534L103.754 64.5H102.354L105.714 55.24H108.354L111.614 64.5H110.214L113.534 55.24H116.294L112.394 66H109.374L106.514 58.06H107.434L104.474 66H101.474ZM129.769 66.16C128.862 66.16 128.069 65.96 127.389 65.56C126.709 65.16 126.175 64.5533 125.789 63.74C125.415 62.9133 125.229 61.8733 125.229 60.62C125.229 59.3533 125.409 58.3133 125.769 57.5C126.129 56.6867 126.649 56.08 127.329 55.68C128.009 55.28 128.822 55.08 129.769 55.08C130.782 55.08 131.689 55.3133 132.489 55.78C133.302 56.2333 133.942 56.8733 134.409 57.7C134.889 58.5267 135.129 59.5 135.129 60.62C135.129 61.7533 134.889 62.7333 134.409 63.56C133.942 64.3867 133.302 65.0267 132.489 65.48C131.689 65.9333 130.782 66.16 129.769 66.16ZM123.409 69.88V55.24H126.389V57.44L126.329 60.64L126.529 63.82V69.88H123.409ZM129.229 63.6C129.749 63.6 130.209 63.48 130.609 63.24C131.022 63 131.349 62.66 131.589 62.22C131.842 61.7667 131.969 61.2333 131.969 60.62C131.969 59.9933 131.842 59.46 131.589 59.02C131.349 58.58 131.022 58.24 130.609 58C130.209 57.76 129.749 57.64 129.229 57.64C128.709 57.64 128.242 57.76 127.829 58C127.415 58.24 127.089 58.58 126.849 59.02C126.609 59.46 126.489 59.9933 126.489 60.62C126.489 61.2333 126.609 61.7667 126.849 62.22C127.089 62.66 127.415 63 127.829 63.24C128.242 63.48 128.709 63.6 129.229 63.6ZM142.337 66.16C141.191 66.16 140.171 65.92 139.277 65.44C138.397 64.96 137.697 64.3067 137.177 63.48C136.671 62.64 136.417 61.6867 136.417 60.62C136.417 59.54 136.671 58.5867 137.177 57.76C137.697 56.92 138.397 56.2667 139.277 55.8C140.171 55.32 141.191 55.08 142.337 55.08C143.471 55.08 144.484 55.32 145.377 55.8C146.271 56.2667 146.971 56.9133 147.477 57.74C147.984 58.5667 148.237 59.5267 148.237 60.62C148.237 61.6867 147.984 62.64 147.477 63.48C146.971 64.3067 146.271 64.96 145.377 65.44C144.484 65.92 143.471 66.16 142.337 66.16ZM142.337 63.6C142.857 63.6 143.324 63.48 143.737 63.24C144.151 63 144.477 62.66 144.717 62.22C144.957 61.7667 145.077 61.2333 145.077 60.62C145.077 59.9933 144.957 59.46 144.717 59.02C144.477 58.58 144.151 58.24 143.737 58C143.324 57.76 142.857 57.64 142.337 57.64C141.817 57.64 141.351 57.76 140.937 58C140.524 58.24 140.191 58.58 139.937 59.02C139.697 59.46 139.577 59.9933 139.577 60.62C139.577 61.2333 139.697 61.7667 139.937 62.22C140.191 62.66 140.524 63 140.937 63.24C141.351 63.48 141.817 63.6 142.337 63.6ZM153.943 66.16C153.023 66.16 152.136 66.0533 151.283 65.84C150.443 65.6133 149.776 65.3333 149.283 65L150.323 62.76C150.816 63.0667 151.396 63.32 152.063 63.52C152.743 63.7067 153.409 63.8 154.063 63.8C154.783 63.8 155.289 63.7133 155.583 63.54C155.889 63.3667 156.043 63.1267 156.043 62.82C156.043 62.5667 155.923 62.38 155.683 62.26C155.456 62.1267 155.149 62.0267 154.763 61.96C154.376 61.8933 153.949 61.8267 153.483 61.76C153.029 61.6933 152.569 61.6067 152.103 61.5C151.636 61.38 151.209 61.2067 150.823 60.98C150.436 60.7533 150.123 60.4467 149.883 60.06C149.656 59.6733 149.543 59.1733 149.543 58.56C149.543 57.88 149.736 57.28 150.123 56.76C150.523 56.24 151.096 55.8333 151.843 55.54C152.589 55.2333 153.483 55.08 154.523 55.08C155.256 55.08 156.003 55.16 156.763 55.32C157.523 55.48 158.156 55.7133 158.663 56.02L157.623 58.24C157.103 57.9333 156.576 57.7267 156.043 57.62C155.523 57.5 155.016 57.44 154.523 57.44C153.829 57.44 153.323 57.5333 153.003 57.72C152.683 57.9067 152.523 58.1467 152.523 58.44C152.523 58.7067 152.636 58.9067 152.863 59.04C153.103 59.1733 153.416 59.28 153.803 59.36C154.189 59.44 154.609 59.5133 155.063 59.58C155.529 59.6333 155.996 59.72 156.463 59.84C156.929 59.96 157.349 60.1333 157.723 60.36C158.109 60.5733 158.423 60.8733 158.663 61.26C158.903 61.6333 159.023 62.1267 159.023 62.74C159.023 63.4067 158.823 64 158.423 64.52C158.023 65.0267 157.443 65.4267 156.683 65.72C155.936 66.0133 155.023 66.16 153.943 66.16ZM165.348 66.16C164.081 66.16 163.094 65.84 162.388 65.2C161.681 64.5467 161.328 63.58 161.328 62.3V52.86H164.448V62.26C164.448 62.7133 164.568 63.0667 164.808 63.32C165.048 63.56 165.374 63.68 165.788 63.68C166.281 63.68 166.701 63.5467 167.048 63.28L167.888 65.48C167.568 65.7067 167.181 65.88 166.728 66C166.288 66.1067 165.828 66.16 165.348 66.16ZM159.668 57.88V55.48H167.128V57.88H159.668Z" fill="#313D3E"/>
<path d="M468.078 51C468.078 45.4772 472.555 41 478.078 41H509C514.523 41 519 45.4772 519 51V67C519 72.5228 514.523 77 509 77H478.078C472.555 77 468.078 72.5228 468.078 67V51Z" fill="#313D3E" fill-opacity="0.1"/>
<path d="M481.194 55.624H484.002C484.522 55.624 484.994 55.712 485.418 55.888C485.842 56.064 486.202 56.328 486.498 56.68C486.802 57.024 487.034 57.46 487.194 57.988C487.354 58.508 487.434 59.116 487.434 59.812C487.434 60.508 487.354 61.12 487.194 61.648C487.034 62.168 486.802 62.604 486.498 62.956C486.202 63.3 485.842 63.56 485.418 63.736C484.994 63.912 484.522 64 484.002 64H481.194V55.624ZM484.002 63.112C484.346 63.112 484.662 63.056 484.95 62.944C485.238 62.824 485.486 62.652 485.694 62.428C485.902 62.204 486.062 61.932 486.174 61.612C486.294 61.284 486.354 60.912 486.354 60.496V59.128C486.354 58.712 486.294 58.344 486.174 58.024C486.062 57.696 485.902 57.42 485.694 57.196C485.486 56.972 485.238 56.804 484.95 56.692C484.662 56.572 484.346 56.512 484.002 56.512H482.202V63.112H484.002ZM489.149 64V57.808H490.109V58.948H490.169C490.281 58.652 490.481 58.388 490.769 58.156C491.057 57.924 491.453 57.808 491.957 57.808H492.329V58.768H491.765C491.245 58.768 490.837 58.868 490.541 59.068C490.253 59.26 490.109 59.504 490.109 59.8V64H489.149ZM498.008 64C497.648 64 497.388 63.904 497.228 63.712C497.076 63.52 496.98 63.28 496.94 62.992H496.88C496.744 63.376 496.52 63.664 496.208 63.856C495.896 64.048 495.524 64.144 495.092 64.144C494.436 64.144 493.924 63.976 493.556 63.64C493.196 63.304 493.016 62.848 493.016 62.272C493.016 61.688 493.228 61.24 493.652 60.928C494.084 60.616 494.752 60.46 495.656 60.46H496.88V59.848C496.88 59.408 496.76 59.072 496.52 58.84C496.28 58.608 495.912 58.492 495.416 58.492C495.04 58.492 494.724 58.576 494.468 58.744C494.22 58.912 494.012 59.136 493.844 59.416L493.268 58.876C493.436 58.54 493.704 58.256 494.072 58.024C494.44 57.784 494.904 57.664 495.464 57.664C496.216 57.664 496.8 57.848 497.216 58.216C497.632 58.584 497.84 59.096 497.84 59.752V63.16H498.548V64H498.008ZM495.248 63.328C495.488 63.328 495.708 63.3 495.908 63.244C496.108 63.188 496.28 63.108 496.424 63.004C496.568 62.9 496.68 62.78 496.76 62.644C496.84 62.508 496.88 62.36 496.88 62.2V61.18H495.608C495.056 61.18 494.652 61.26 494.396 61.42C494.148 61.58 494.024 61.812 494.024 62.116V62.368C494.024 62.672 494.132 62.908 494.348 63.076C494.572 63.244 494.872 63.328 495.248 63.328ZM500.254 58.648H499.246V57.808H500.254V56.56C500.254 56.128 500.366 55.78 500.59 55.516C500.814 55.252 501.154 55.12 501.61 55.12H502.546V55.96H501.214V57.808H502.546V58.648H501.214V64H500.254V58.648ZM505.177 64C504.841 64 504.585 63.908 504.409 63.724C504.241 63.532 504.157 63.284 504.157 62.98V58.648H503.137V57.808H503.713C503.921 57.808 504.061 57.768 504.133 57.688C504.213 57.6 504.253 57.452 504.253 57.244V56.092H505.117V57.808H506.473V58.648H505.117V63.16H506.377V64H505.177Z" fill="#313D3E"/>
<path d="M37.485 122.226V130H36.016V122.226H33.312V120.926H40.189V122.226H37.485ZM41.4798 130V128.804H42.7148V122.122H41.4798V120.926H45.4318V122.122H44.1838V128.804H45.4318V130H41.4798ZM50.8938 122.226V130H49.4248V122.226H46.7208V120.926H53.5978V122.226H50.8938ZM55.3547 130V120.926H56.8237V128.7H60.5157V130H55.3547ZM62.3448 130V120.926H68.1558V122.226H63.8138V124.748H67.7528V126.048H63.8138V128.7H68.1558V130H62.3448Z" fill="#313D3E" fill-opacity="0.8"/>
<mask id="path-12-inside-3_213_2142" fill="white">
<path d="M33 148C33 140.268 39.268 134 47 134H505C512.732 134 519 140.268 519 148V158C519 165.732 512.732 172 505 172H47C39.268 172 33 165.732 33 158V148Z"/>
</mask>
<path d="M33 148C33 140.268 39.268 134 47 134H505C512.732 134 519 140.268 519 148V158C519 165.732 512.732 172 505 172H47C39.268 172 33 165.732 33 158V148Z" fill="#313D3E" fill-opacity="0.1"/>
<path d="M47 134V135H505V134V133H47V134ZM519 148H518V158H519H520V148H519ZM505 172V171H47V172V173H505V172ZM33 158H34V148H33H32V158H33ZM47 172V171C39.8203 171 34 165.18 34 158H33H32C32 166.284 38.7157 173 47 173V172ZM519 158H518C518 165.18 512.18 171 505 171V172V173C513.284 173 520 166.284 520 158H519ZM505 134V135C512.18 135 518 140.82 518 148H519H520C520 139.716 513.284 133 505 133V134ZM47 134V133C38.7157 133 32 139.716 32 148H33H34C34 140.82 39.8203 135 47 135V134Z" fill="#313D3E" fill-opacity="0.3" mask="url(#path-12-inside-3_213_2142)"/>
<path d="M50 151C50 148.791 51.7909 147 54 147H385C387.209 147 389 148.791 389 151V155C389 157.209 387.209 159 385 159H54C51.7909 159 50 157.209 50 155V151Z" fill="#313D3E" fill-opacity="0.3"/>
<path d="M37.524 200.156C36.3367 200.156 35.405 199.757 34.729 198.96C34.053 198.154 33.715 196.988 33.715 195.463C33.715 194.7 33.8017 194.029 33.975 193.448C34.1483 192.867 34.3997 192.378 34.729 191.979C35.0583 191.58 35.457 191.281 35.925 191.082C36.4017 190.874 36.9347 190.77 37.524 190.77C38.3127 190.77 38.9713 190.943 39.5 191.29C40.0373 191.637 40.4577 192.148 40.761 192.824L39.526 193.5C39.37 193.067 39.1273 192.724 38.798 192.473C38.4773 192.213 38.0527 192.083 37.524 192.083C36.822 192.083 36.2717 192.321 35.873 192.798C35.4743 193.275 35.275 193.933 35.275 194.774V196.152C35.275 196.993 35.4743 197.651 35.873 198.128C36.2717 198.605 36.822 198.843 37.524 198.843C38.07 198.843 38.512 198.704 38.85 198.427C39.1967 198.141 39.4523 197.777 39.617 197.335L40.8 198.05C40.4967 198.709 40.072 199.224 39.526 199.597C38.98 199.97 38.3127 200.156 37.524 200.156ZM46.0272 200.156C45.4379 200.156 44.9006 200.056 44.4152 199.857C43.9386 199.649 43.5269 199.35 43.1802 198.96C42.8422 198.561 42.5779 198.072 42.3872 197.491C42.2052 196.902 42.1142 196.226 42.1142 195.463C42.1142 194.7 42.2052 194.029 42.3872 193.448C42.5779 192.859 42.8422 192.369 43.1802 191.979C43.5269 191.58 43.9386 191.281 44.4152 191.082C44.9006 190.874 45.4379 190.77 46.0272 190.77C46.6166 190.77 47.1496 190.874 47.6262 191.082C48.1116 191.281 48.5232 191.58 48.8612 191.979C49.2079 192.369 49.4722 192.859 49.6542 193.448C49.8449 194.029 49.9402 194.7 49.9402 195.463C49.9402 196.226 49.8449 196.902 49.6542 197.491C49.4722 198.072 49.2079 198.561 48.8612 198.96C48.5232 199.35 48.1116 199.649 47.6262 199.857C47.1496 200.056 46.6166 200.156 46.0272 200.156ZM46.0272 198.843C46.3739 198.843 46.6902 198.782 46.9762 198.661C47.2709 198.54 47.5179 198.366 47.7172 198.141C47.9252 197.907 48.0856 197.625 48.1982 197.296C48.3109 196.967 48.3672 196.594 48.3672 196.178V194.748C48.3672 194.332 48.3109 193.959 48.1982 193.63C48.0856 193.301 47.9252 193.023 47.7172 192.798C47.5179 192.564 47.2709 192.386 46.9762 192.265C46.6902 192.144 46.3739 192.083 46.0272 192.083C45.6719 192.083 45.3512 192.144 45.0652 192.265C44.7792 192.386 44.5322 192.564 44.3242 192.798C44.1249 193.023 43.9689 193.301 43.8562 193.63C43.7436 193.959 43.6872 194.332 43.6872 194.748V196.178C43.6872 196.594 43.7436 196.967 43.8562 197.296C43.9689 197.625 44.1249 197.907 44.3242 198.141C44.5322 198.366 44.7792 198.54 45.0652 198.661C45.3512 198.782 45.6719 198.843 46.0272 198.843ZM54.5411 194.982L53.5401 193.058H53.5011V200H52.0971V190.926H53.7351L56.6991 195.944L57.7001 197.868H57.7391V190.926H59.1431V200H57.5051L54.5411 194.982ZM65.0694 192.226V200H63.6004V192.226H60.8964V190.926H67.7734V192.226H65.0694ZM69.5303 200V190.926H75.3413V192.226H70.9993V194.748H74.9383V196.048H70.9993V198.7H75.3413V200H69.5303ZM80.0054 194.982L79.0044 193.058H78.9654V200H77.5614V190.926H79.1994L82.1634 195.944L83.1644 197.868H83.2034V190.926H84.6074V200H82.9694L80.0054 194.982ZM90.5336 192.226V200H89.0646V192.226H86.3606V190.926H93.2376V192.226H90.5336Z" fill="#313D3E" fill-opacity="0.8"/>
<mask id="path-16-inside-4_213_2142" fill="white">
<path d="M33 218C33 210.268 39.268 204 47 204H505C512.732 204 519 210.268 519 218V334C519 341.732 512.732 348 505 348H47C39.268 348 33 341.732 33 334V218Z"/>
</mask>
<path d="M33 218C33 210.268 39.268 204 47 204H505C512.732 204 519 210.268 519 218V334C519 341.732 512.732 348 505 348H47C39.268 348 33 341.732 33 334V218Z" fill="#313D3E" fill-opacity="0.1"/>
<path d="M47 204V205H505V204V203H47V204ZM519 218H518V334H519H520V218H519ZM505 348V347H47V348V349H505V348ZM33 334H34V218H33H32V334H33ZM47 348V347C39.8203 347 34 341.18 34 334H33H32C32 342.284 38.7157 349 47 349V348ZM519 334H518C518 341.18 512.18 347 505 347V348V349C513.284 349 520 342.284 520 334H519ZM505 204V205C512.18 205 518 210.82 518 218H519H520C520 209.716 513.284 203 505 203V204ZM47 204V203C38.7157 203 32 209.716 32 218H33H34C34 210.82 39.8203 205 47 205V204Z" fill="#313D3E" fill-opacity="0.3" mask="url(#path-16-inside-4_213_2142)"/>
<path d="M50 225C50 222.791 51.7909 221 54 221H498C500.209 221 502 222.791 502 225V227C502 229.209 500.209 231 498 231H54C51.7909 231 50 229.209 50 227V225Z" fill="#313D3E" fill-opacity="0.3"/>
<path d="M50 245C50 242.791 51.7909 241 54 241H422.656C424.865 241 426.656 242.791 426.656 245V247C426.656 249.209 424.865 251 422.656 251H54C51.7909 251 50 249.209 50 247V245Z" fill="#313D3E" fill-opacity="0.3"/>
<path d="M50 265C50 262.791 51.7909 261 54 261H347.328C349.537 261 351.328 262.791 351.328 265V267C351.328 269.209 349.537 271 347.328 271H54C51.7909 271 50 269.209 50 267V265Z" fill="#313D3E" fill-opacity="0.3"/>
<path d="M50 285C50 282.791 51.7909 281 54 281H498C500.209 281 502 282.791 502 285V287C502 289.209 500.209 291 498 291H54C51.7909 291 50 289.209 50 287V285Z" fill="#313D3E" fill-opacity="0.3"/>
<path d="M50 305C50 302.791 51.7909 301 54 301H385C387.209 301 389 302.791 389 305V307C389 309.209 387.209 311 385 311H54C51.7909 311 50 309.209 50 307V305Z" fill="#313D3E" fill-opacity="0.3"/>
<path d="M50 325C50 322.791 51.7909 321 54 321H422.656C424.865 321 426.656 322.791 426.656 325V327C426.656 329.209 424.865 331 422.656 331H54C51.7909 331 50 329.209 50 327V325Z" fill="#313D3E" fill-opacity="0.3"/>
<path d="M34.118 376V366.926H39.786V368.226H35.587V370.748H39.318V372.048H35.587V376H34.118ZM41.8571 376V366.926H47.6681V368.226H43.3261V370.748H47.2651V372.048H43.3261V374.7H47.6681V376H41.8571ZM55.5561 376L54.7371 373.543H51.3441L50.5511 376H49.0561L52.1501 366.926H53.9961L57.0901 376H55.5561ZM53.0731 368.278H53.0081L51.6951 372.282H54.3731L53.0731 368.278ZM61.337 368.226V376H59.868V368.226H57.164V366.926H64.041V368.226H61.337ZM67.1889 366.926V372.516C67.1889 373.287 67.3362 373.868 67.6309 374.258C67.9255 374.648 68.4282 374.843 69.1389 374.843C69.8495 374.843 70.3522 374.648 70.6469 374.258C70.9415 373.868 71.0889 373.287 71.0889 372.516V366.926H72.5319V372.282C72.5319 372.949 72.4712 373.526 72.3499 374.011C72.2285 374.496 72.0335 374.899 71.7649 375.22C71.4962 375.532 71.1452 375.766 70.7119 375.922C70.2872 376.078 69.7629 376.156 69.1389 376.156C68.5149 376.156 67.9862 376.078 67.5529 375.922C67.1282 375.766 66.7815 375.532 66.5129 375.22C66.2442 374.899 66.0492 374.496 65.9279 374.011C65.8065 373.526 65.7459 372.949 65.7459 372.282V366.926H67.1889ZM76.504 376H75.035V366.926H78.948C79.7627 366.926 80.404 367.173 80.872 367.667C81.34 368.152 81.574 368.815 81.574 369.656C81.574 370.306 81.4223 370.848 81.119 371.281C80.8243 371.706 80.3867 372.005 79.806 372.178L81.769 376H80.131L78.311 372.334H76.504V376ZM78.844 371.099C79.2167 371.099 79.507 371.004 79.715 370.813C79.923 370.614 80.027 370.332 80.027 369.968V369.344C80.027 368.98 79.923 368.703 79.715 368.512C79.507 368.313 79.2167 368.213 78.844 368.213H76.504V371.099H78.844ZM83.8785 376V366.926H89.6895V368.226H85.3475V370.748H89.2865V372.048H85.3475V374.7H89.6895V376H83.8785ZM91.9096 366.926H95.1206C95.7013 366.926 96.2256 367.021 96.6936 367.212C97.1703 367.403 97.5733 367.689 97.9026 368.07C98.2406 368.443 98.5006 368.915 98.6826 369.487C98.8646 370.05 98.9556 370.709 98.9556 371.463C98.9556 372.217 98.8646 372.88 98.6826 373.452C98.5006 374.015 98.2406 374.488 97.9026 374.869C97.5733 375.242 97.1703 375.523 96.6936 375.714C96.2256 375.905 95.7013 376 95.1206 376H91.9096V366.926ZM95.1206 374.7C95.7966 374.7 96.3426 374.488 96.7586 374.063C97.1746 373.638 97.3826 373.014 97.3826 372.191V370.735C97.3826 369.912 97.1746 369.288 96.7586 368.863C96.3426 368.438 95.7966 368.226 95.1206 368.226H93.3786V374.7H95.1206ZM104.116 376V374.804H105.351V368.122H104.116V366.926H108.068V368.122H106.82V374.804H108.068V376H104.116ZM117.181 369.058H117.116L116.401 370.527L114.412 374.154L112.423 370.527L111.708 369.058H111.643V376H110.239V366.926H111.981L114.412 371.541H114.49L116.921 366.926H118.585V376H117.181V369.058ZM126.82 376L126.001 373.543H122.608L121.815 376H120.32L123.414 366.926H125.26L128.354 376H126.82ZM124.337 368.278H124.272L122.959 372.282H125.637L124.337 368.278ZM135.642 374.622H135.59C135.495 375.064 135.235 375.432 134.81 375.727C134.394 376.013 133.839 376.156 133.146 376.156C132.609 376.156 132.11 376.056 131.651 375.857C131.192 375.649 130.793 375.35 130.455 374.96C130.126 374.561 129.866 374.072 129.675 373.491C129.493 372.902 129.402 372.226 129.402 371.463C129.402 370.709 129.497 370.042 129.688 369.461C129.879 368.872 130.147 368.378 130.494 367.979C130.841 367.58 131.257 367.281 131.742 367.082C132.227 366.874 132.769 366.77 133.367 366.77C134.182 366.77 134.871 366.952 135.434 367.316C135.997 367.671 136.435 368.17 136.747 368.811L135.551 369.513C135.378 369.088 135.109 368.746 134.745 368.486C134.381 368.217 133.922 368.083 133.367 368.083C132.648 368.083 132.067 368.313 131.625 368.772C131.192 369.231 130.975 369.881 130.975 370.722V372.204C130.975 373.045 131.192 373.695 131.625 374.154C132.067 374.613 132.648 374.843 133.367 374.843C133.653 374.843 133.926 374.808 134.186 374.739C134.446 374.661 134.671 374.553 134.862 374.414C135.061 374.267 135.217 374.089 135.33 373.881C135.451 373.664 135.512 373.413 135.512 373.127V372.425H133.64V371.164H136.929V376H135.642V374.622ZM139.296 376V366.926H145.107V368.226H140.765V370.748H144.704V372.048H140.765V374.7H145.107V376H139.296Z" fill="#313D3E" fill-opacity="0.8"/>
<mask id="path-25-inside-5_213_2142" fill="white">
<path d="M33 394C33 386.268 39.268 380 47 380H505C512.732 380 519 386.268 519 394V501.5C519 509.232 512.732 515.5 505 515.5H47C39.268 515.5 33 509.232 33 501.5V394Z"/>
</mask>
<path d="M33 394C33 386.268 39.268 380 47 380H505C512.732 380 519 386.268 519 394V501.5C519 509.232 512.732 515.5 505 515.5H47C39.268 515.5 33 509.232 33 501.5V394Z" fill="#313D3E" fill-opacity="0.1"/>
<path d="M47 515.5V514.5C46.4236 514.5 45.8565 514.463 45.3008 514.39L45.1715 515.382L45.0421 516.373C45.6833 516.457 46.3369 516.5 47 516.5V515.5ZM43.3752 515.026L43.6334 514.06C42.5236 513.763 41.472 513.323 40.4997 512.761L39.9989 513.626L39.4981 514.492C40.6202 515.141 41.8347 515.65 43.117 515.992L43.3752 515.026ZM38.477 512.608L39.0863 511.815C38.1854 511.122 37.3777 510.315 36.6853 509.414L35.8924 510.023L35.0995 510.632C35.8977 511.671 36.8289 512.602 37.8677 513.401L38.477 512.608ZM34.8736 508.501L35.7392 508C35.1766 507.028 34.7366 505.976 34.4399 504.867L33.4738 505.125L32.5077 505.383C32.8505 506.665 33.3588 507.88 34.008 509.002L34.8736 508.501ZM33.1183 503.329L34.1099 503.199C34.0374 502.644 34 502.076 34 501.5H33H32C32 502.163 32.0431 502.817 32.1267 503.458L33.1183 503.329ZM33 501.5H34V499.509H33H32V501.5H33ZM33 497.519H34V493.537H33H32V497.519H33ZM33 491.546H34V487.565H33H32V491.546H33ZM33 485.574H34V481.593H33H32V485.574H33ZM33 479.602H34V475.62H33H32V479.602H33ZM33 473.63H34V469.648H33H32V473.63H33ZM33 467.657H34V463.676H33H32V467.657H33ZM33 461.685H34V457.704H33H32V461.685H33ZM33 455.713H34V451.731H33H32V455.713H33ZM33 449.741H34V445.759H33H32V449.741H33ZM33 443.769H34V439.787H33H32V443.769H33ZM33 437.796H34V433.815H33H32V437.796H33ZM33 431.824H34V427.843H33H32V431.824H33ZM33 425.852H34V421.87H33H32V425.852H33ZM33 419.88H34V415.898H33H32V419.88H33ZM33 413.907H34V409.926H33H32V413.907H33ZM33 407.935H34V403.954H33H32V407.935H33ZM33 401.963H34V397.981H33H32V401.963H33ZM33 395.991H34V394H33H32V395.991H33ZM33 394H34C34 393.424 34.0374 392.856 34.1099 392.301L33.1183 392.171L32.1267 392.042C32.0431 392.683 32 393.337 32 394H33ZM33.4738 390.375L34.4399 390.633C34.7366 389.524 35.1766 388.472 35.7392 387.5L34.8736 386.999L34.008 386.498C33.3588 387.62 32.8505 388.835 32.5077 390.117L33.4738 390.375ZM35.8924 385.477L36.6853 386.086C37.3777 385.185 38.1854 384.378 39.0863 383.685L38.477 382.892L37.8677 382.099C36.8289 382.898 35.8977 383.829 35.0995 384.868L35.8924 385.477ZM39.9989 381.874L40.4997 382.739C41.472 382.177 42.5236 381.737 43.6335 381.44L43.3752 380.474L43.117 379.508C41.8347 379.85 40.6202 380.359 39.4981 381.008L39.9989 381.874ZM45.1715 380.118L45.3008 381.11C45.8565 381.037 46.4236 381 47 381V380V379C46.3369 379 45.6834 379.043 45.0421 379.127L45.1715 380.118ZM47 380V381H49.0088V380V379H47V380ZM51.0175 380V381H55.0351V380V379H51.0175V380ZM57.0439 380V381H61.0614V380V379H57.0439V380ZM63.0702 380V381H67.0877V380V379H63.0702V380ZM69.0965 380V381H73.114V380V379H69.0965V380ZM75.1228 380V381H79.1404V380V379H75.1228V380ZM81.1491 380V381H85.1667V380V379H81.1491V380ZM87.1754 380V381H91.193V380V379H87.1754V380ZM93.2018 380V381H97.2193V380V379H93.2018V380ZM99.2281 380V381H103.246V380V379H99.2281V380ZM105.254 380V381H109.272V380V379H105.254V380ZM111.281 380V381H115.298V380V379H111.281V380ZM117.307 380V381H121.325V380V379H117.307V380ZM123.333 380V381H127.351V380V379H123.333V380ZM129.36 380V381H133.377V380V379H129.36V380ZM135.386 380V381H139.404V380V379H135.386V380ZM141.412 380V381H145.43V380V379H141.412V380ZM147.439 380V381H151.456V380V379H147.439V380ZM153.465 380V381H157.482V380V379H153.465V380ZM159.491 380V381H163.509V380V379H159.491V380ZM165.518 380V381H169.535V380V379H165.518V380ZM171.544 380V381H175.561V380V379H171.544V380ZM177.57 380V381H181.588V380V379H177.57V380ZM183.597 380V381H187.614V380V379H183.597V380ZM189.623 380V381H193.64V380V379H189.623V380ZM195.649 380V381H199.667V380V379H195.649V380ZM201.676 380V381H205.693V380V379H201.676V380ZM207.702 380V381H211.719V380V379H207.702V380ZM213.728 380V381H217.746V380V379H213.728V380ZM219.754 380V381H223.772V380V379H219.754V380ZM225.781 380V381H229.798V380V379H225.781V380ZM231.807 380V381H235.825V380V379H231.807V380ZM237.833 380V381H241.851V380V379H237.833V380ZM243.86 380V381H247.877V380V379H243.86V380ZM249.886 380V381H253.904V380V379H249.886V380ZM255.912 380V381H259.93V380V379H255.912V380ZM261.939 380V381H265.956V380V379H261.939V380ZM267.965 380V381H271.983V380V379H267.965V380ZM273.991 380V381H278.009V380V379H273.991V380ZM280.018 380V381H284.035V380V379H280.018V380ZM286.044 380V381H290.062V380V379H286.044V380ZM292.07 380V381H296.088V380V379H292.07V380ZM298.097 380V381H302.114V380V379H298.097V380ZM304.123 380V381H308.141V380V379H304.123V380ZM310.149 380V381H314.167V380V379H310.149V380ZM316.176 380V381H320.193V380V379H316.176V380ZM322.202 380V381H326.219V380V379H322.202V380ZM328.228 380V381H332.246V380V379H328.228V380ZM334.254 380V381H338.272V380V379H334.254V380ZM340.281 380V381H344.298V380V379H340.281V380ZM346.307 380V381H350.325V380V379H346.307V380ZM352.333 380V381H356.351V380V379H352.333V380ZM358.36 380V381H362.377V380V379H358.36V380ZM364.386 380V381H368.404V380V379H364.386V380ZM370.412 380V381H374.43V380V379H370.412V380ZM376.439 380V381H380.456V380V379H376.439V380ZM382.465 380V381H386.482V380V379H382.465V380ZM388.491 380V381H392.509V380V379H388.491V380ZM394.518 380V381H398.535V380V379H394.518V380ZM400.544 380V381H404.561V380V379H400.544V380ZM406.57 380V381H410.588V380V379H406.57V380ZM412.596 380V381H416.614V380V379H412.596V380ZM418.623 380V381H422.64V380V379H418.623V380ZM424.649 380V381H428.667V380V379H424.649V380ZM430.675 380V381H434.693V380V379H430.675V380ZM436.702 380V381H440.719V380V379H436.702V380ZM442.728 380V381H446.746V380V379H442.728V380ZM448.754 380V381H452.772V380V379H448.754V380ZM454.781 380V381H458.798V380V379H454.781V380ZM460.807 380V381H464.824V380V379H460.807V380ZM466.833 380V381H470.851V380V379H466.833V380ZM472.86 380V381H476.877V380V379H472.86V380ZM478.886 380V381H482.903V380V379H478.886V380ZM484.912 380V381H488.93V380V379H484.912V380ZM490.938 380V381H494.956V380V379H490.938V380ZM496.965 380V381H500.982V380V379H496.965V380ZM502.991 380V381H505V380V379H502.991V380ZM505 380V381C505.576 381 506.144 381.037 506.699 381.11L506.829 380.118L506.958 379.127C506.317 379.043 505.663 379 505 379V380ZM508.625 380.474L508.367 381.44C509.476 381.737 510.528 382.177 511.5 382.739L512.001 381.874L512.502 381.008C511.38 380.359 510.165 379.85 508.883 379.508L508.625 380.474ZM513.523 382.892L512.914 383.685C513.815 384.378 514.622 385.185 515.315 386.086L516.108 385.477L516.901 384.868C516.102 383.829 515.171 382.898 514.132 382.099L513.523 382.892ZM517.126 386.999L516.261 387.5C516.823 388.472 517.263 389.524 517.56 390.633L518.526 390.375L519.492 390.117C519.15 388.835 518.641 387.62 517.992 386.498L517.126 386.999ZM518.882 392.171L517.89 392.301C517.963 392.856 518 393.424 518 394H519H520C520 393.337 519.957 392.683 519.873 392.042L518.882 392.171ZM519 394H518V395.991H519H520V394H519ZM519 397.981H518V401.963H519H520V397.981H519ZM519 403.954H518V407.935H519H520V403.954H519ZM519 409.926H518V413.907H519H520V409.926H519ZM519 415.898H518V419.88H519H520V415.898H519ZM519 421.87H518V425.852H519H520V421.87H519ZM519 427.843H518V431.824H519H520V427.843H519ZM519 433.815H518V437.796H519H520V433.815H519ZM519 439.787H518V443.769H519H520V439.787H519ZM519 445.759H518V449.741H519H520V445.759H519ZM519 451.731H518V455.713H519H520V451.731H519ZM519 457.704H518V461.685H519H520V457.704H519ZM519 463.676H518V467.657H519H520V463.676H519ZM519 469.648H518V473.63H519H520V469.648H519ZM519 475.62H518V479.602H519H520V475.62H519ZM519 481.593H518V485.574H519H520V481.593H519ZM519 487.565H518V491.546H519H520V487.565H519ZM519 493.537H518V497.519H519H520V493.537H519ZM519 499.509H518V501.5H519H520V499.509H519ZM519 501.5H518C518 502.076 517.963 502.644 517.89 503.199L518.882 503.329L519.873 503.458C519.957 502.817 520 502.163 520 501.5H519ZM518.526 505.125L517.56 504.867C517.263 505.976 516.823 507.028 516.261 508L517.126 508.501L517.992 509.002C518.641 507.88 519.15 506.665 519.492 505.383L518.526 505.125ZM516.108 510.023L515.315 509.414C514.622 510.315 513.815 511.122 512.914 511.815L513.523 512.608L514.132 513.401C515.171 512.602 516.102 511.671 516.901 510.632L516.108 510.023ZM512.001 513.626L511.5 512.761C510.528 513.323 509.476 513.763 508.367 514.06L508.625 515.026L508.883 515.992C510.165 515.65 511.38 515.141 512.502 514.492L512.001 513.626ZM506.829 515.382L506.699 514.39C506.143 514.463 505.576 514.5 505 514.5V515.5V516.5C505.663 516.5 506.317 516.457 506.958 516.373L506.829 515.382ZM505 515.5V514.5H502.991V515.5V516.5H505V515.5ZM500.982 515.5V514.5H496.965V515.5V516.5H500.982V515.5ZM494.956 515.5V514.5H490.939V515.5V516.5H494.956V515.5ZM488.93 515.5V514.5H484.912V515.5V516.5H488.93V515.5ZM482.904 515.5V514.5H478.886V515.5V516.5H482.904V515.5ZM476.877 515.5V514.5H472.86V515.5V516.5H476.877V515.5ZM470.851 515.5V514.5H466.833V515.5V516.5H470.851V515.5ZM464.825 515.5V514.5H460.807V515.5V516.5H464.825V515.5ZM458.798 515.5V514.5H454.781V515.5V516.5H458.798V515.5ZM452.772 515.5V514.5H448.754V515.5V516.5H452.772V515.5ZM446.746 515.5V514.5H442.728V515.5V516.5H446.746V515.5ZM440.719 515.5V514.5H436.702V515.5V516.5H440.719V515.5ZM434.693 515.5V514.5H430.675V515.5V516.5H434.693V515.5ZM428.667 515.5V514.5H424.649V515.5V516.5H428.667V515.5ZM422.64 515.5V514.5H418.623V515.5V516.5H422.64V515.5ZM416.614 515.5V514.5H412.596V515.5V516.5H416.614V515.5ZM410.588 515.5V514.5H406.57V515.5V516.5H410.588V515.5ZM404.561 515.5V514.5H400.544V515.5V516.5H404.561V515.5ZM398.535 515.5V514.5H394.518V515.5V516.5H398.535V515.5ZM392.509 515.5V514.5H388.491V515.5V516.5H392.509V515.5ZM386.482 515.5V514.5H382.465V515.5V516.5H386.482V515.5ZM380.456 515.5V514.5H376.439V515.5V516.5H380.456V515.5ZM374.43 515.5V514.5H370.412V515.5V516.5H374.43V515.5ZM368.403 515.5V514.5H364.386V515.5V516.5H368.403V515.5ZM362.377 515.5V514.5H358.36V515.5V516.5H362.377V515.5ZM356.351 515.5V514.5H352.333V515.5V516.5H356.351V515.5ZM350.324 515.5V514.5H346.307V515.5V516.5H350.324V515.5ZM344.298 515.5V514.5H340.281V515.5V516.5H344.298V515.5ZM338.272 515.5V514.5H334.254V515.5V516.5H338.272V515.5ZM332.246 515.5V514.5H328.228V515.5V516.5H332.246V515.5ZM326.219 515.5V514.5H322.202V515.5V516.5H326.219V515.5ZM320.193 515.5V514.5H316.175V515.5V516.5H320.193V515.5ZM314.167 515.5V514.5H310.149V515.5V516.5H314.167V515.5ZM308.14 515.5V514.5H304.123V515.5V516.5H308.14V515.5ZM302.114 515.5V514.5H298.096V515.5V516.5H302.114V515.5ZM296.088 515.5V514.5H292.07V515.5V516.5H296.088V515.5ZM290.061 515.5V514.5H286.044V515.5V516.5H290.061V515.5ZM284.035 515.5V514.5H280.017V515.5V516.5H284.035V515.5ZM278.009 515.5V514.5H273.991V515.5V516.5H278.009V515.5ZM271.982 515.5V514.5H267.965V515.5V516.5H271.982V515.5ZM265.956 515.5V514.5H261.938V515.5V516.5H265.956V515.5ZM259.93 515.5V514.5H255.912V515.5V516.5H259.93V515.5ZM253.903 515.5V514.5H249.886V515.5V516.5H253.903V515.5ZM247.877 515.5V514.5H243.859V515.5V516.5H247.877V515.5ZM241.851 515.5V514.5H237.833V515.5V516.5H241.851V515.5ZM235.824 515.5V514.5H231.807V515.5V516.5H235.824V515.5ZM229.798 515.5V514.5H225.781V515.5V516.5H229.798V515.5ZM223.772 515.5V514.5H219.754V515.5V516.5H223.772V515.5ZM217.745 515.5V514.5H213.728V515.5V516.5H217.745V515.5ZM211.719 515.5V514.5H207.702V515.5V516.5H211.719V515.5ZM205.693 515.5V514.5H201.675V515.5V516.5H205.693V515.5ZM199.667 515.5V514.5H195.649V515.5V516.5H199.667V515.5ZM193.64 515.5V514.5H189.623V515.5V516.5H193.64V515.5ZM187.614 515.5V514.5H183.596V515.5V516.5H187.614V515.5ZM181.588 515.5V514.5H177.57V515.5V516.5H181.588V515.5ZM175.561 515.5V514.5H171.544V515.5V516.5H175.561V515.5ZM169.535 515.5V514.5H165.518V515.5V516.5H169.535V515.5ZM163.509 515.5V514.5H159.491V515.5V516.5H163.509V515.5ZM157.482 515.5V514.5H153.465V515.5V516.5H157.482V515.5ZM151.456 515.5V514.5H147.439V515.5V516.5H151.456V515.5ZM145.43 515.5V514.5H141.412V515.5V516.5H145.43V515.5ZM139.404 515.5V514.5H135.386V515.5V516.5H139.404V515.5ZM133.377 515.5V514.5H129.36V515.5V516.5H133.377V515.5ZM127.351 515.5V514.5H123.333V515.5V516.5H127.351V515.5ZM121.325 515.5V514.5H117.307V515.5V516.5H121.325V515.5ZM115.298 515.5V514.5H111.281V515.5V516.5H115.298V515.5ZM109.272 515.5V514.5H105.254V515.5V516.5H109.272V515.5ZM103.246 515.5V514.5H99.2281V515.5V516.5H103.246V515.5ZM97.2194 515.5V514.5H93.2018V515.5V516.5H97.2194V515.5ZM91.1931 515.5V514.5H87.1755V515.5V516.5H91.1931V515.5ZM85.1668 515.5V514.5H81.1492V515.5V516.5H85.1668V515.5ZM79.1405 515.5V514.5H75.1229V515.5V516.5H79.1405V515.5ZM73.1141 515.5V514.5H69.0966V515.5V516.5H73.1141V515.5ZM67.0879 515.5V514.5H63.0703V515.5V516.5H67.0879V515.5ZM61.0615 515.5V514.5H57.044V515.5V516.5H61.0615V515.5ZM55.0352 515.5V514.5H51.0177V515.5V516.5H55.0352V515.5ZM49.0089 515.5V514.5H47V515.5V516.5H49.0089V515.5ZM47 515.5V513.5C46.467 513.5 45.9431 513.465 45.4302 513.398L45.1715 515.382L44.9128 517.365C45.5968 517.454 46.2935 517.5 47 517.5V515.5ZM43.3752 515.026L43.8917 513.094C42.868 512.82 41.8979 512.415 41.0005 511.895L39.9989 513.626L38.9973 515.358C40.1943 516.05 41.4902 516.593 42.8587 516.958L43.3752 515.026ZM38.477 512.608L39.6957 511.022C38.8636 510.382 38.1176 509.636 37.4782 508.804L35.8924 510.023L34.3066 511.242C35.1578 512.349 36.1507 513.342 37.2584 514.193L38.477 512.608ZM34.8736 508.501L36.6047 507.5C36.0855 506.602 35.6796 505.632 35.406 504.608L33.4738 505.125L31.5416 505.641C31.9074 507.01 32.4499 508.306 33.1425 509.503L34.8736 508.501ZM33.1183 503.329L35.1015 503.07C35.0346 502.557 35 502.033 35 501.5H33H31C31 502.206 31.0459 502.903 31.1351 503.587L33.1183 503.329ZM33 501.5H35V499.509H33H31V501.5H33ZM33 497.519H35V493.537H33H31V497.519H33ZM33 491.546H35V487.565H33H31V491.546H33ZM33 485.574H35V481.593H33H31V485.574H33ZM33 479.602H35V475.62H33H31V479.602H33ZM33 473.63H35V469.648H33H31V473.63H33ZM33 467.657H35V463.676H33H31V467.657H33ZM33 461.685H35V457.704H33H31V461.685H33ZM33 455.713H35V451.731H33H31V455.713H33ZM33 449.741H35V445.759H33H31V449.741H33ZM33 443.769H35V439.787H33H31V443.769H33ZM33 437.796H35V433.815H33H31V437.796H33ZM33 431.824H35V427.843H33H31V431.824H33ZM33 425.852H35V421.87H33H31V425.852H33ZM33 419.88H35V415.898H33H31V419.88H33ZM33 413.907H35V409.926H33H31V413.907H33ZM33 407.935H35V403.954H33H31V407.935H33ZM33 401.963H35V397.981H33H31V401.963H33ZM33 395.991H35V394H33H31V395.991H33ZM33 394H35C35 393.467 35.0346 392.943 35.1015 392.43L33.1183 392.171L31.1351 391.913C31.0459 392.597 31 393.294 31 394H33ZM33.4738 390.375L35.406 390.892C35.6796 389.868 36.0855 388.898 36.6047 388L34.8736 386.999L33.1425 385.997C32.4499 387.194 31.9074 388.49 31.5416 389.859L33.4738 390.375ZM35.8924 385.477L37.4782 386.696C38.1176 385.864 38.8637 385.118 39.6957 384.478L38.477 382.892L37.2584 381.307C36.1507 382.158 35.1578 383.151 34.3066 384.258L35.8924 385.477ZM39.9989 381.874L41.0005 383.605C41.8979 383.085 42.868 382.68 43.8917 382.406L43.3752 380.474L42.8587 378.542C41.4902 378.907 40.1943 379.45 38.9973 380.142L39.9989 381.874ZM45.1715 380.118L45.4302 382.102C45.9431 382.035 46.467 382 47 382V380V378C46.2935 378 45.5968 378.046 44.9128 378.135L45.1715 380.118ZM47 380V382H49.0088V380V378H47V380ZM51.0175 380V382H55.0351V380V378H51.0175V380ZM57.0439 380V382H61.0614V380V378H57.0439V380ZM63.0702 380V382H67.0877V380V378H63.0702V380ZM69.0965 380V382H73.114V380V378H69.0965V380ZM75.1228 380V382H79.1404V380V378H75.1228V380ZM81.1491 380V382H85.1667V380V378H81.1491V380ZM87.1754 380V382H91.193V380V378H87.1754V380ZM93.2018 380V382H97.2193V380V378H93.2018V380ZM99.2281 380V382H103.246V380V378H99.2281V380ZM105.254 380V382H109.272V380V378H105.254V380ZM111.281 380V382H115.298V380V378H111.281V380ZM117.307 380V382H121.325V380V378H117.307V380ZM123.333 380V382H127.351V380V378H123.333V380ZM129.36 380V382H133.377V380V378H129.36V380ZM135.386 380V382H139.404V380V378H135.386V380ZM141.412 380V382H145.43V380V378H141.412V380ZM147.439 380V382H151.456V380V378H147.439V380ZM153.465 380V382H157.482V380V378H153.465V380ZM159.491 380V382H163.509V380V378H159.491V380ZM165.518 380V382H169.535V380V378H165.518V380ZM171.544 380V382H175.561V380V378H171.544V380ZM177.57 380V382H181.588V380V378H177.57V380ZM183.597 380V382H187.614V380V378H183.597V380ZM189.623 380V382H193.64V380V378H189.623V380ZM195.649 380V382H199.667V380V378H195.649V380ZM201.676 380V382H205.693V380V378H201.676V380ZM207.702 380V382H211.719V380V378H207.702V380ZM213.728 380V382H217.746V380V378H213.728V380ZM219.754 380V382H223.772V380V378H219.754V380ZM225.781 380V382H229.798V380V378H225.781V380ZM231.807 380V382H235.825V380V378H231.807V380ZM237.833 380V382H241.851V380V378H237.833V380ZM243.86 380V382H247.877V380V378H243.86V380ZM249.886 380V382H253.904V380V378H249.886V380ZM255.912 380V382H259.93V380V378H255.912V380ZM261.939 380V382H265.956V380V378H261.939V380ZM267.965 380V382H271.983V380V378H267.965V380ZM273.991 380V382H278.009V380V378H273.991V380ZM280.018 380V382H284.035V380V378H280.018V380ZM286.044 380V382H290.062V380V378H286.044V380ZM292.07 380V382H296.088V380V378H292.07V380ZM298.097 380V382H302.114V380V378H298.097V380ZM304.123 380V382H308.141V380V378H304.123V380ZM310.149 380V382H314.167V380V378H310.149V380ZM316.176 380V382H320.193V380V378H316.176V380ZM322.202 380V382H326.219V380V378H322.202V380ZM328.228 380V382H332.246V380V378H328.228V380ZM334.254 380V382H338.272V380V378H334.254V380ZM340.281 380V382H344.298V380V378H340.281V380ZM346.307 380V382H350.325V380V378H346.307V380ZM352.333 380V382H356.351V380V378H352.333V380ZM358.36 380V382H362.377V380V378H358.36V380ZM364.386 380V382H368.404V380V378H364.386V380ZM370.412 380V382H374.43V380V378H370.412V380ZM376.439 380V382H380.456V380V378H376.439V380ZM382.465 380V382H386.482V380V378H382.465V380ZM388.491 380V382H392.509V380V378H388.491V380ZM394.518 380V382H398.535V380V378H394.518V380ZM400.544 380V382H404.561V380V378H400.544V380ZM406.57 380V382H410.588V380V378H406.57V380ZM412.596 380V382H416.614V380V378H412.596V380ZM418.623 380V382H422.64V380V378H418.623V380ZM424.649 380V382H428.667V380V378H424.649V380ZM430.675 380V382H434.693V380V378H430.675V380ZM436.702 380V382H440.719V380V378H436.702V380ZM442.728 380V382H446.746V380V378H442.728V380ZM448.754 380V382H452.772V380V378H448.754V380ZM454.781 380V382H458.798V380V378H454.781V380ZM460.807 380V382H464.824V380V378H460.807V380ZM466.833 380V382H470.851V380V378H466.833V380ZM472.86 380V382H476.877V380V378H472.86V380ZM478.886 380V382H482.903V380V378H478.886V380ZM484.912 380V382H488.93V380V378H484.912V380ZM490.938 380V382H494.956V380V378H490.938V380ZM496.965 380V382H500.982V380V378H496.965V380ZM502.991 380V382H505V380V378H502.991V380ZM505 380V382C505.533 382 506.057 382.035 506.57 382.102L506.829 380.118L507.087 378.135C506.403 378.046 505.706 378 505 378V380ZM508.625 380.474L508.108 382.406C509.132 382.68 510.102 383.085 511 383.605L512.001 381.874L513.003 380.142C511.806 379.45 510.51 378.907 509.141 378.542L508.625 380.474ZM513.523 382.892L512.304 384.478C513.136 385.118 513.882 385.864 514.522 386.696L516.108 385.477L517.693 384.258C516.842 383.151 515.849 382.158 514.742 381.307L513.523 382.892ZM517.126 386.999L515.395 388C515.914 388.898 516.32 389.868 516.594 390.892L518.526 390.375L520.458 389.859C520.093 388.49 519.55 387.194 518.858 385.997L517.126 386.999ZM518.882 392.171L516.898 392.43C516.965 392.943 517 393.467 517 394H519H521C521 393.294 520.954 392.597 520.865 391.913L518.882 392.171ZM519 394H517V395.991H519H521V394H519ZM519 397.981H517V401.963H519H521V397.981H519ZM519 403.954H517V407.935H519H521V403.954H519ZM519 409.926H517V413.907H519H521V409.926H519ZM519 415.898H517V419.88H519H521V415.898H519ZM519 421.87H517V425.852H519H521V421.87H519ZM519 427.843H517V431.824H519H521V427.843H519ZM519 433.815H517V437.796H519H521V433.815H519ZM519 439.787H517V443.769H519H521V439.787H519ZM519 445.759H517V449.741H519H521V445.759H519ZM519 451.731H517V455.713H519H521V451.731H519ZM519 457.704H517V461.685H519H521V457.704H519ZM519 463.676H517V467.657H519H521V463.676H519ZM519 469.648H517V473.63H519H521V469.648H519ZM519 475.62H517V479.602H519H521V475.62H519ZM519 481.593H517V485.574H519H521V481.593H519ZM519 487.565H517V491.546H519H521V487.565H519ZM519 493.537H517V497.519H519H521V493.537H519ZM519 499.509H517V501.5H519H521V499.509H519ZM519 501.5H517C517 502.033 516.965 502.557 516.898 503.07L518.882 503.329L520.865 503.587C520.954 502.903 521 502.206 521 501.5H519ZM518.526 505.125L516.594 504.608C516.32 505.632 515.914 506.602 515.395 507.5L517.126 508.501L518.858 509.503C519.55 508.306 520.093 507.01 520.458 505.641L518.526 505.125ZM516.108 510.023L514.522 508.804C513.882 509.636 513.136 510.382 512.304 511.022L513.523 512.608L514.742 514.193C515.849 513.342 516.842 512.349 517.693 511.242L516.108 510.023ZM512.001 513.626L511 511.895C510.102 512.415 509.132 512.82 508.108 513.094L508.625 515.026L509.141 516.958C510.51 516.593 511.806 516.05 513.003 515.358L512.001 513.626ZM506.829 515.382L506.57 513.398C506.057 513.465 505.533 513.5 505 513.5V515.5V517.5C505.706 517.5 506.403 517.454 507.087 517.365L506.829 515.382ZM505 515.5V513.5H502.991V515.5V517.5H505V515.5ZM500.982 515.5V513.5H496.965V515.5V517.5H500.982V515.5ZM494.956 515.5V513.5H490.939V515.5V517.5H494.956V515.5ZM488.93 515.5V513.5H484.912V515.5V517.5H488.93V515.5ZM482.904 515.5V513.5H478.886V515.5V517.5H482.904V515.5ZM476.877 515.5V513.5H472.86V515.5V517.5H476.877V515.5ZM470.851 515.5V513.5H466.833V515.5V517.5H470.851V515.5ZM464.825 515.5V513.5H460.807V515.5V517.5H464.825V515.5ZM458.798 515.5V513.5H454.781V515.5V517.5H458.798V515.5ZM452.772 515.5V513.5H448.754V515.5V517.5H452.772V515.5ZM446.746 515.5V513.5H442.728V515.5V517.5H446.746V515.5ZM440.719 515.5V513.5H436.702V515.5V517.5H440.719V515.5ZM434.693 515.5V513.5H430.675V515.5V517.5H434.693V515.5ZM428.667 515.5V513.5H424.649V515.5V517.5H428.667V515.5ZM422.64 515.5V513.5H418.623V515.5V517.5H422.64V515.5ZM416.614 515.5V513.5H412.596V515.5V517.5H416.614V515.5ZM410.588 515.5V513.5H406.57V515.5V517.5H410.588V515.5ZM404.561 515.5V513.5H400.544V515.5V517.5H404.561V515.5ZM398.535 515.5V513.5H394.518V515.5V517.5H398.535V515.5ZM392.509 515.5V513.5H388.491V515.5V517.5H392.509V515.5ZM386.482 515.5V513.5H382.465V515.5V517.5H386.482V515.5ZM380.456 515.5V513.5H376.439V515.5V517.5H380.456V515.5ZM374.43 515.5V513.5H370.412V515.5V517.5H374.43V515.5ZM368.403 515.5V513.5H364.386V515.5V517.5H368.403V515.5ZM362.377 515.5V513.5H358.36V515.5V517.5H362.377V515.5ZM356.351 515.5V513.5H352.333V515.5V517.5H356.351V515.5ZM350.324 515.5V513.5H346.307V515.5V517.5H350.324V515.5ZM344.298 515.5V513.5H340.281V515.5V517.5H344.298V515.5ZM338.272 515.5V513.5H334.254V515.5V517.5H338.272V515.5ZM332.246 515.5V513.5H328.228V515.5V517.5H332.246V515.5ZM326.219 515.5V513.5H322.202V515.5V517.5H326.219V515.5ZM320.193 515.5V513.5H316.175V515.5V517.5H320.193V515.5ZM314.167 515.5V513.5H310.149V515.5V517.5H314.167V515.5ZM308.14 515.5V513.5H304.123V515.5V517.5H308.14V515.5ZM302.114 515.5V513.5H298.096V515.5V517.5H302.114V515.5ZM296.088 515.5V513.5H292.07V515.5V517.5H296.088V515.5ZM290.061 515.5V513.5H286.044V515.5V517.5H290.061V515.5ZM284.035 515.5V513.5H280.017V515.5V517.5H284.035V515.5ZM278.009 515.5V513.5H273.991V515.5V517.5H278.009V515.5ZM271.982 515.5V513.5H267.965V515.5V517.5H271.982V515.5ZM265.956 515.5V513.5H261.938V515.5V517.5H265.956V515.5ZM259.93 515.5V513.5H255.912V515.5V517.5H259.93V515.5ZM253.903 515.5V513.5H249.886V515.5V517.5H253.903V515.5ZM247.877 515.5V513.5H243.859V515.5V517.5H247.877V515.5ZM241.851 515.5V513.5H237.833V515.5V517.5H241.851V515.5ZM235.824 515.5V513.5H231.807V515.5V517.5H235.824V515.5ZM229.798 515.5V513.5H225.781V515.5V517.5H229.798V515.5ZM223.772 515.5V513.5H219.754V515.5V517.5H223.772V515.5ZM217.745 515.5V513.5H213.728V515.5V517.5H217.745V515.5ZM211.719 515.5V513.5H207.702V515.5V517.5H211.719V515.5ZM205.693 515.5V513.5H201.675V515.5V517.5H205.693V515.5ZM199.667 515.5V513.5H195.649V515.5V517.5H199.667V515.5ZM193.64 515.5V513.5H189.623V515.5V517.5H193.64V515.5ZM187.614 515.5V513.5H183.596V515.5V517.5H187.614V515.5ZM181.588 515.5V513.5H177.57V515.5V517.5H181.588V515.5ZM175.561 515.5V513.5H171.544V515.5V517.5H175.561V515.5ZM169.535 515.5V513.5H165.518V515.5V517.5H169.535V515.5ZM163.509 515.5V513.5H159.491V515.5V517.5H163.509V515.5ZM157.482 515.5V513.5H153.465V515.5V517.5H157.482V515.5ZM151.456 515.5V513.5H147.439V515.5V517.5H151.456V515.5ZM145.43 515.5V513.5H141.412V515.5V517.5H145.43V515.5ZM139.404 515.5V513.5H135.386V515.5V517.5H139.404V515.5ZM133.377 515.5V513.5H129.36V515.5V517.5H133.377V515.5ZM127.351 515.5V513.5H123.333V515.5V517.5H127.351V515.5ZM121.325 515.5V513.5H117.307V515.5V517.5H121.325V515.5ZM115.298 515.5V513.5H111.281V515.5V517.5H115.298V515.5ZM109.272 515.5V513.5H105.254V515.5V517.5H109.272V515.5ZM103.246 515.5V513.5H99.2281V515.5V517.5H103.246V515.5ZM97.2194 515.5V513.5H93.2018V515.5V517.5H97.2194V515.5ZM91.1931 515.5V513.5H87.1755V515.5V517.5H91.1931V515.5ZM85.1668 515.5V513.5H81.1492V515.5V517.5H85.1668V515.5ZM79.1405 515.5V513.5H75.1229V515.5V517.5H79.1405V515.5ZM73.1141 515.5V513.5H69.0966V515.5V517.5H73.1141V515.5ZM67.0879 515.5V513.5H63.0703V515.5V517.5H67.0879V515.5ZM61.0615 515.5V513.5H57.044V515.5V517.5H61.0615V515.5ZM55.0352 515.5V513.5H51.0177V515.5V517.5H55.0352V515.5ZM49.0089 515.5V513.5H47V515.5V517.5H49.0089V515.5Z" fill="#313D3E" fill-opacity="0.3" mask="url(#path-25-inside-5_213_2142)"/>
<path d="M291 439V445.667C291 446.551 290.649 447.399 290.024 448.024C289.399 448.649 288.551 449 287.667 449H264.333C263.449 449 262.601 448.649 261.976 448.024C261.351 447.399 261 446.551 261 445.667V439" stroke="#313D3E" stroke-opacity="0.7" stroke-width="3.33333" stroke-linecap="round" stroke-linejoin="round"/>
<path d="M284.333 427.333L276 419L267.667 427.333" stroke="#313D3E" stroke-opacity="0.7" stroke-width="3.33333" stroke-linecap="round" stroke-linejoin="round"/>
<path d="M276 419V439" stroke="#313D3E" stroke-opacity="0.7" stroke-width="3.33333" stroke-linecap="round" stroke-linejoin="round"/>
<path d="M238.142 466.926V472.542C238.142 473.409 238.303 474.067 238.623 474.518C238.944 474.96 239.507 475.181 240.313 475.181C241.119 475.181 241.683 474.96 242.003 474.518C242.324 474.067 242.484 473.409 242.484 472.542V466.926H243.576V472.282C243.576 472.941 243.516 473.513 243.394 473.998C243.282 474.483 243.095 474.886 242.835 475.207C242.575 475.528 242.233 475.766 241.808 475.922C241.392 476.078 240.881 476.156 240.274 476.156C239.668 476.156 239.156 476.078 238.74 475.922C238.333 475.766 238.004 475.528 237.752 475.207C237.501 474.886 237.319 474.483 237.206 473.998C237.102 473.513 237.05 472.941 237.05 472.282V466.926H238.142ZM245.822 469.292H246.862V470.384H246.914C247.087 469.959 247.338 469.647 247.668 469.448C248.006 469.24 248.409 469.136 248.877 469.136C249.293 469.136 249.67 469.218 250.008 469.383C250.346 469.548 250.632 469.782 250.866 470.085C251.108 470.388 251.29 470.757 251.412 471.19C251.542 471.623 251.607 472.109 251.607 472.646C251.607 473.183 251.542 473.669 251.412 474.102C251.29 474.535 251.108 474.904 250.866 475.207C250.632 475.51 250.346 475.744 250.008 475.909C249.67 476.074 249.293 476.156 248.877 476.156C247.967 476.156 247.312 475.74 246.914 474.908H246.862V478.6H245.822V469.292ZM248.591 475.22C249.18 475.22 249.644 475.038 249.982 474.674C250.32 474.301 250.489 473.816 250.489 473.218V472.074C250.489 471.476 250.32 470.995 249.982 470.631C249.644 470.258 249.18 470.072 248.591 470.072C248.357 470.072 248.131 470.107 247.915 470.176C247.707 470.237 247.525 470.323 247.369 470.436C247.213 470.549 247.087 470.687 246.992 470.852C246.905 471.008 246.862 471.177 246.862 471.359V473.855C246.862 474.072 246.905 474.267 246.992 474.44C247.087 474.605 247.213 474.748 247.369 474.869C247.525 474.982 247.707 475.068 247.915 475.129C248.131 475.19 248.357 475.22 248.591 475.22ZM254.468 476C254.104 476 253.826 475.9 253.636 475.701C253.454 475.493 253.363 475.233 253.363 474.921V466.38H254.403V475.09H255.391V476H254.468ZM259.44 476.156C258.989 476.156 258.577 476.074 258.205 475.909C257.832 475.744 257.511 475.51 257.243 475.207C256.983 474.895 256.779 474.527 256.632 474.102C256.484 473.669 256.411 473.183 256.411 472.646C256.411 472.117 256.484 471.636 256.632 471.203C256.779 470.77 256.983 470.401 257.243 470.098C257.511 469.786 257.832 469.548 258.205 469.383C258.577 469.218 258.989 469.136 259.44 469.136C259.89 469.136 260.298 469.218 260.662 469.383C261.034 469.548 261.355 469.786 261.624 470.098C261.892 470.401 262.1 470.77 262.248 471.203C262.395 471.636 262.469 472.117 262.469 472.646C262.469 473.183 262.395 473.669 262.248 474.102C262.1 474.527 261.892 474.895 261.624 475.207C261.355 475.51 261.034 475.744 260.662 475.909C260.298 476.074 259.89 476.156 259.44 476.156ZM259.44 475.233C260.003 475.233 260.462 475.06 260.818 474.713C261.173 474.366 261.351 473.838 261.351 473.127V472.165C261.351 471.454 261.173 470.926 260.818 470.579C260.462 470.232 260.003 470.059 259.44 470.059C258.876 470.059 258.417 470.232 258.062 470.579C257.706 470.926 257.529 471.454 257.529 472.165V473.127C257.529 473.838 257.706 474.366 258.062 474.713C258.417 475.06 258.876 475.233 259.44 475.233ZM269.054 476C268.664 476 268.383 475.896 268.209 475.688C268.045 475.48 267.941 475.22 267.897 474.908H267.832C267.685 475.324 267.442 475.636 267.104 475.844C266.766 476.052 266.363 476.156 265.895 476.156C265.185 476.156 264.63 475.974 264.231 475.61C263.841 475.246 263.646 474.752 263.646 474.128C263.646 473.495 263.876 473.01 264.335 472.672C264.803 472.334 265.527 472.165 266.506 472.165H267.832V471.502C267.832 471.025 267.702 470.661 267.442 470.41C267.182 470.159 266.784 470.033 266.246 470.033C265.839 470.033 265.497 470.124 265.219 470.306C264.951 470.488 264.725 470.731 264.543 471.034L263.919 470.449C264.101 470.085 264.392 469.777 264.79 469.526C265.189 469.266 265.692 469.136 266.298 469.136C267.113 469.136 267.746 469.335 268.196 469.734C268.647 470.133 268.872 470.687 268.872 471.398V475.09H269.639V476H269.054ZM266.064 475.272C266.324 475.272 266.563 475.242 266.779 475.181C266.996 475.12 267.182 475.034 267.338 474.921C267.494 474.808 267.616 474.678 267.702 474.531C267.789 474.384 267.832 474.223 267.832 474.05V472.945H266.454C265.856 472.945 265.419 473.032 265.141 473.205C264.873 473.378 264.738 473.63 264.738 473.959V474.232C264.738 474.561 264.855 474.817 265.089 474.999C265.332 475.181 265.657 475.272 266.064 475.272ZM275.414 474.908H275.362C274.954 475.74 274.3 476.156 273.399 476.156C272.983 476.156 272.606 476.074 272.268 475.909C271.93 475.744 271.639 475.51 271.397 475.207C271.163 474.904 270.981 474.535 270.851 474.102C270.729 473.669 270.669 473.183 270.669 472.646C270.669 472.109 270.729 471.623 270.851 471.19C270.981 470.757 271.163 470.388 271.397 470.085C271.639 469.782 271.93 469.548 272.268 469.383C272.606 469.218 272.983 469.136 273.399 469.136C273.867 469.136 274.265 469.24 274.595 469.448C274.933 469.647 275.188 469.959 275.362 470.384H275.414V466.38H276.454V476H275.414V474.908ZM273.685 475.22C273.919 475.22 274.14 475.19 274.348 475.129C274.564 475.068 274.751 474.982 274.907 474.869C275.063 474.748 275.184 474.605 275.271 474.44C275.366 474.267 275.414 474.072 275.414 473.855V471.359C275.414 471.177 275.366 471.008 275.271 470.852C275.184 470.687 275.063 470.549 274.907 470.436C274.751 470.323 274.564 470.237 274.348 470.176C274.14 470.107 273.919 470.072 273.685 470.072C273.095 470.072 272.632 470.258 272.294 470.631C271.956 470.995 271.787 471.476 271.787 472.074V473.218C271.787 473.816 271.956 474.301 272.294 474.674C272.632 475.038 273.095 475.22 273.685 475.22ZM282.257 467.719C282.032 467.719 281.867 467.667 281.763 467.563C281.668 467.45 281.62 467.307 281.62 467.134V466.965C281.62 466.792 281.668 466.653 281.763 466.549C281.867 466.436 282.032 466.38 282.257 466.38C282.482 466.38 282.643 466.436 282.738 466.549C282.842 466.653 282.894 466.792 282.894 466.965V467.134C282.894 467.307 282.842 467.45 282.738 467.563C282.643 467.667 282.482 467.719 282.257 467.719ZM281.737 469.292H282.777V476H281.737V469.292ZM284.987 476V469.292H286.027V470.384H286.079C286.157 470.211 286.244 470.05 286.339 469.903C286.443 469.747 286.564 469.613 286.703 469.5C286.85 469.387 287.019 469.301 287.21 469.24C287.401 469.171 287.626 469.136 287.886 469.136C288.328 469.136 288.735 469.244 289.108 469.461C289.481 469.669 289.758 470.016 289.94 470.501H289.966C290.087 470.137 290.313 469.821 290.642 469.552C290.98 469.275 291.435 469.136 292.007 469.136C292.692 469.136 293.225 469.361 293.606 469.812C293.996 470.254 294.191 470.882 294.191 471.697V476H293.151V471.879C293.151 471.281 293.034 470.83 292.8 470.527C292.566 470.224 292.193 470.072 291.682 470.072C291.474 470.072 291.275 470.098 291.084 470.15C290.902 470.202 290.737 470.28 290.59 470.384C290.443 470.488 290.326 470.622 290.239 470.787C290.152 470.943 290.109 471.129 290.109 471.346V476H289.069V471.879C289.069 471.281 288.952 470.83 288.718 470.527C288.484 470.224 288.12 470.072 287.626 470.072C287.418 470.072 287.219 470.098 287.028 470.15C286.837 470.202 286.668 470.28 286.521 470.384C286.374 470.488 286.252 470.622 286.157 470.787C286.07 470.943 286.027 471.129 286.027 471.346V476H284.987ZM301.211 476C300.821 476 300.54 475.896 300.366 475.688C300.202 475.48 300.098 475.22 300.054 474.908H299.989C299.842 475.324 299.599 475.636 299.261 475.844C298.923 476.052 298.52 476.156 298.052 476.156C297.342 476.156 296.787 475.974 296.388 475.61C295.998 475.246 295.803 474.752 295.803 474.128C295.803 473.495 296.033 473.01 296.492 472.672C296.96 472.334 297.684 472.165 298.663 472.165H299.989V471.502C299.989 471.025 299.859 470.661 299.599 470.41C299.339 470.159 298.941 470.033 298.403 470.033C297.996 470.033 297.654 470.124 297.376 470.306C297.108 470.488 296.882 470.731 296.7 471.034L296.076 470.449C296.258 470.085 296.549 469.777 296.947 469.526C297.346 469.266 297.849 469.136 298.455 469.136C299.27 469.136 299.903 469.335 300.353 469.734C300.804 470.133 301.029 470.687 301.029 471.398V475.09H301.796V476H301.211ZM298.221 475.272C298.481 475.272 298.72 475.242 298.936 475.181C299.153 475.12 299.339 475.034 299.495 474.921C299.651 474.808 299.773 474.678 299.859 474.531C299.946 474.384 299.989 474.223 299.989 474.05V472.945H298.611C298.013 472.945 297.576 473.032 297.298 473.205C297.03 473.378 296.895 473.63 296.895 473.959V474.232C296.895 474.561 297.012 474.817 297.246 474.999C297.489 475.181 297.814 475.272 298.221 475.272ZM308.936 476.741C308.936 477.434 308.663 477.941 308.117 478.262C307.579 478.591 306.769 478.756 305.686 478.756C304.637 478.756 303.883 478.613 303.424 478.327C302.964 478.041 302.735 477.634 302.735 477.105C302.735 476.741 302.83 476.455 303.021 476.247C303.211 476.048 303.471 475.9 303.801 475.805V475.662C303.402 475.471 303.203 475.159 303.203 474.726C303.203 474.388 303.311 474.132 303.528 473.959C303.744 473.777 304.022 473.643 304.36 473.556V473.504C303.961 473.313 303.649 473.04 303.424 472.685C303.207 472.33 303.099 471.918 303.099 471.45C303.099 471.112 303.159 470.8 303.281 470.514C303.402 470.228 303.571 469.985 303.788 469.786C304.013 469.578 304.277 469.418 304.581 469.305C304.893 469.192 305.239 469.136 305.621 469.136C306.097 469.136 306.522 469.223 306.895 469.396V469.279C306.895 469.019 306.955 468.807 307.077 468.642C307.198 468.469 307.397 468.382 307.675 468.382H308.676V469.292H307.402V469.721C307.644 469.929 307.831 470.18 307.961 470.475C308.099 470.761 308.169 471.086 308.169 471.45C308.169 471.788 308.108 472.1 307.987 472.386C307.865 472.672 307.692 472.919 307.467 473.127C307.25 473.326 306.986 473.482 306.674 473.595C306.362 473.708 306.015 473.764 305.634 473.764C305.417 473.764 305.2 473.742 304.984 473.699C304.758 473.76 304.555 473.851 304.373 473.972C304.191 474.085 304.1 474.245 304.1 474.453C304.1 474.652 304.195 474.787 304.386 474.856C304.576 474.925 304.823 474.96 305.127 474.96H306.557C307.389 474.96 307.991 475.12 308.364 475.441C308.745 475.753 308.936 476.186 308.936 476.741ZM307.961 476.819C307.961 476.55 307.857 476.334 307.649 476.169C307.449 476.013 307.09 475.935 306.57 475.935H304.334C303.918 476.126 303.71 476.429 303.71 476.845C303.71 477.14 303.818 477.391 304.035 477.599C304.26 477.807 304.637 477.911 305.166 477.911H306.128C306.708 477.911 307.159 477.82 307.48 477.638C307.8 477.456 307.961 477.183 307.961 476.819ZM305.634 472.932C306.076 472.932 306.427 472.828 306.687 472.62C306.947 472.403 307.077 472.074 307.077 471.632V471.268C307.077 470.826 306.947 470.501 306.687 470.293C306.427 470.076 306.076 469.968 305.634 469.968C305.192 469.968 304.841 470.076 304.581 470.293C304.321 470.501 304.191 470.826 304.191 471.268V471.632C304.191 472.074 304.321 472.403 304.581 472.62C304.841 472.828 305.192 472.932 305.634 472.932ZM312.595 476.156C312.135 476.156 311.719 476.074 311.347 475.909C310.983 475.744 310.666 475.51 310.398 475.207C310.138 474.895 309.934 474.527 309.787 474.102C309.648 473.669 309.579 473.183 309.579 472.646C309.579 472.117 309.648 471.636 309.787 471.203C309.934 470.77 310.138 470.401 310.398 470.098C310.666 469.786 310.983 469.548 311.347 469.383C311.719 469.218 312.135 469.136 312.595 469.136C313.045 469.136 313.448 469.218 313.804 469.383C314.159 469.548 314.462 469.777 314.714 470.072C314.965 470.358 315.156 470.7 315.286 471.099C315.424 471.498 315.494 471.935 315.494 472.412V472.906H310.671V473.218C310.671 473.504 310.714 473.773 310.801 474.024C310.896 474.267 311.026 474.479 311.191 474.661C311.364 474.843 311.572 474.986 311.815 475.09C312.066 475.194 312.348 475.246 312.66 475.246C313.084 475.246 313.453 475.146 313.765 474.947C314.085 474.748 314.332 474.462 314.506 474.089L315.247 474.622C315.03 475.081 314.692 475.454 314.233 475.74C313.773 476.017 313.227 476.156 312.595 476.156ZM312.595 470.007C312.309 470.007 312.049 470.059 311.815 470.163C311.581 470.258 311.377 470.397 311.204 470.579C311.039 470.761 310.909 470.978 310.814 471.229C310.718 471.472 310.671 471.74 310.671 472.035V472.126H314.376V471.983C314.376 471.385 314.211 470.908 313.882 470.553C313.561 470.189 313.132 470.007 312.595 470.007Z" fill="#313D3E" fill-opacity="0.8"/>
<g opacity="0.7" filter="url(#filter0_dd_213_2142)">
<path d="M33 553C33 545.268 39.268 539 47 539H505C512.732 539 519 545.268 519 553V581C519 588.732 512.732 595 505 595H47C39.268 595 33 588.732 33 581V553Z" fill="#313D3E" shape-rendering="crispEdges"/>
<path d="M245.906 573V561.8H250.754C251.757 561.8 252.621 561.965 253.346 562.296C254.071 562.616 254.631 563.08 255.026 563.688C255.421 564.296 255.618 565.021 255.618 565.864C255.618 566.696 255.421 567.416 255.026 568.024C254.631 568.632 254.071 569.101 253.346 569.432C252.621 569.752 251.757 569.912 250.754 569.912H247.346L248.498 568.744V573H245.906ZM248.498 569.032L247.346 567.8H250.61C251.41 567.8 252.007 567.629 252.402 567.288C252.797 566.947 252.994 566.472 252.994 565.864C252.994 565.245 252.797 564.765 252.402 564.424C252.007 564.083 251.41 563.912 250.61 563.912H247.346L248.498 562.68V569.032ZM261.081 573.128C260.366 573.128 259.726 572.989 259.161 572.712C258.606 572.435 258.174 572.013 257.865 571.448C257.556 570.872 257.401 570.141 257.401 569.256V564.392H259.897V568.888C259.897 569.603 260.046 570.131 260.345 570.472C260.654 570.803 261.086 570.968 261.641 570.968C262.025 570.968 262.366 570.888 262.665 570.728C262.964 570.557 263.198 570.301 263.369 569.96C263.54 569.608 263.625 569.171 263.625 568.648V564.392H266.121V573H263.753V570.632L264.185 571.32C263.897 571.917 263.47 572.371 262.905 572.68C262.35 572.979 261.742 573.128 261.081 573.128ZM273.521 573.128C272.764 573.128 272.113 572.968 271.569 572.648C271.025 572.328 270.609 571.843 270.321 571.192C270.033 570.531 269.889 569.699 269.889 568.696C269.889 567.683 270.039 566.851 270.337 566.2C270.647 565.549 271.073 565.064 271.617 564.744C272.161 564.424 272.796 564.264 273.521 564.264C274.332 564.264 275.057 564.445 275.697 564.808C276.348 565.171 276.86 565.683 277.233 566.344C277.617 567.005 277.809 567.789 277.809 568.696C277.809 569.592 277.617 570.371 277.233 571.032C276.86 571.693 276.348 572.211 275.697 572.584C275.057 572.947 274.332 573.128 273.521 573.128ZM268.433 573V561.128H270.929V566.136L270.769 568.68L270.817 571.24V573H268.433ZM273.089 571.08C273.505 571.08 273.873 570.984 274.193 570.792C274.524 570.6 274.785 570.328 274.977 569.976C275.18 569.613 275.281 569.187 275.281 568.696C275.281 568.195 275.18 567.768 274.977 567.416C274.785 567.064 274.524 566.792 274.193 566.6C273.873 566.408 273.505 566.312 273.089 566.312C272.673 566.312 272.3 566.408 271.969 566.6C271.639 566.792 271.377 567.064 271.185 567.416C270.993 567.768 270.897 568.195 270.897 568.696C270.897 569.187 270.993 569.613 271.185 569.976C271.377 570.328 271.639 570.6 271.969 570.792C272.3 570.984 272.673 571.08 273.089 571.08ZM279.48 573V561.128H281.976V573H279.48ZM284.293 573V564.392H286.789V573H284.293ZM285.541 563.192C285.082 563.192 284.709 563.059 284.421 562.792C284.133 562.525 283.989 562.195 283.989 561.8C283.989 561.405 284.133 561.075 284.421 560.808C284.709 560.541 285.082 560.408 285.541 560.408C285.999 560.408 286.373 560.536 286.661 560.792C286.949 561.037 287.093 561.357 287.093 561.752C287.093 562.168 286.949 562.515 286.661 562.792C286.383 563.059 286.01 563.192 285.541 563.192ZM292.001 573.128C291.265 573.128 290.556 573.043 289.873 572.872C289.201 572.691 288.668 572.467 288.273 572.2L289.105 570.408C289.5 570.653 289.964 570.856 290.497 571.016C291.041 571.165 291.574 571.24 292.097 571.24C292.673 571.24 293.078 571.171 293.313 571.032C293.558 570.893 293.681 570.701 293.681 570.456C293.681 570.253 293.585 570.104 293.393 570.008C293.212 569.901 292.966 569.821 292.657 569.768C292.348 569.715 292.006 569.661 291.633 569.608C291.27 569.555 290.902 569.485 290.529 569.4C290.156 569.304 289.814 569.165 289.505 568.984C289.196 568.803 288.945 568.557 288.753 568.248C288.572 567.939 288.481 567.539 288.481 567.048C288.481 566.504 288.636 566.024 288.945 565.608C289.265 565.192 289.724 564.867 290.321 564.632C290.918 564.387 291.633 564.264 292.465 564.264C293.052 564.264 293.649 564.328 294.257 564.456C294.865 564.584 295.372 564.771 295.777 565.016L294.945 566.792C294.529 566.547 294.108 566.381 293.681 566.296C293.265 566.2 292.86 566.152 292.465 566.152C291.91 566.152 291.505 566.227 291.249 566.376C290.993 566.525 290.865 566.717 290.865 566.952C290.865 567.165 290.956 567.325 291.137 567.432C291.329 567.539 291.58 567.624 291.889 567.688C292.198 567.752 292.534 567.811 292.897 567.864C293.27 567.907 293.644 567.976 294.017 568.072C294.39 568.168 294.726 568.307 295.025 568.488C295.334 568.659 295.585 568.899 295.777 569.208C295.969 569.507 296.065 569.901 296.065 570.392C296.065 570.925 295.905 571.4 295.585 571.816C295.265 572.221 294.801 572.541 294.193 572.776C293.596 573.011 292.865 573.128 292.001 573.128ZM297.605 573V561.128H300.101V566.776L299.541 566.056C299.85 565.48 300.293 565.037 300.869 564.728C301.445 564.419 302.101 564.264 302.837 564.264C303.52 564.264 304.128 564.403 304.661 564.68C305.205 564.947 305.632 565.363 305.941 565.928C306.25 566.483 306.405 567.197 306.405 568.072V573H303.909V568.456C303.909 567.763 303.754 567.251 303.445 566.92C303.146 566.589 302.72 566.424 302.165 566.424C301.77 566.424 301.413 566.509 301.093 566.68C300.784 566.84 300.538 567.091 300.357 567.432C300.186 567.773 300.101 568.211 300.101 568.744V573H297.605Z" fill="white"/>
</g>
<defs>
<filter id="filter0_dd_213_2142" x="21" y="537" width="510" height="80" filterUnits="userSpaceOnUse" color-interpolation-filters="sRGB">
<feFlood flood-opacity="0" result="BackgroundImageFix"/>
<feColorMatrix in="SourceAlpha" type="matrix" values="0 0 0 0 0 0 0 0 0 0 0 0 0 0 0 0 0 0 127 0" result="hardAlpha"/>
<feMorphology radius="4" operator="erode" in="SourceAlpha" result="effect1_dropShadow_213_2142"/>
<feOffset dy="4"/>
<feGaussianBlur stdDeviation="3"/>
<feComposite in2="hardAlpha" operator="out"/>
<feColorMatrix type="matrix" values="0 0 0 0 0 0 0 0 0 0 0 0 0 0 0 0 0 0 0.1 0"/>
<feBlend mode="normal" in2="BackgroundImageFix" result="effect1_dropShadow_213_2142"/>
<feColorMatrix in="SourceAlpha" type="matrix" values="0 0 0 0 0 0 0 0 0 0 0 0 0 0 0 0 0 0 127 0" result="hardAlpha"/>
<feMorphology radius="3" operator="erode" in="SourceAlpha" result="effect2_dropShadow_213_2142"/>
<feOffset dy="10"/>
<feGaussianBlur stdDeviation="7.5"/>
<feComposite in2="hardAlpha" operator="out"/>
<feColorMatrix type="matrix" values="0 0 0 0 0 0 0 0 0 0 0 0 0 0 0 0 0 0 0.1 0"/>
<feBlend mode="normal" in2="effect1_dropShadow_213_2142" result="effect2_dropShadow_213_2142"/>
<feBlend mode="normal" in="SourceGraphic" in2="effect2_dropShadow_213_2142" result="shape"/>
</filter>
</defs>
</svg>
