<svg width="512" height="512" viewBox="0 0 512 512" fill="none" xmlns="http://www.w3.org/2000/svg">
<path fill-rule="evenodd" clip-rule="evenodd" d="M429.577 13.887L415.5 27.773L387 34.439C371.325 38.106 357.147 41.531 355.492 42.05C353.625 42.637 345.607 49.914 334.342 61.248L316.2 79.5L308.942 103.5L301.685 127.5L268.842 160.535C238.424 191.131 236 193.824 236 197.026C236 200.189 237.747 202.231 256.562 221.062L277.124 241.642L273.047 244.467C268.128 247.876 261.812 257.029 260.06 263.287C259.318 265.936 258.943 271.136 259.167 275.676C259.85 289.558 267.02 300.427 279.554 306.581C284.859 309.185 286.526 309.5 295.015 309.5C303.761 309.5 305.074 309.233 311.252 306.194C315.835 303.94 319.49 301.163 322.737 297.468L327.5 292.049L345.677 310.191C361.537 326.021 364.255 328.333 367.001 328.333C369.757 328.333 372.661 325.833 390.324 308.256L410.5 288.178L415.315 293.558C437.554 318.408 478.25 302.81 478.158 269.473C478.127 258.287 473.23 247.725 465.317 241.775C463.767 240.611 462.069 239.281 461.543 238.822C460.976 238.326 468.005 230.526 478.793 219.681C488.807 209.614 497 200.595 497 199.639C497 196.01 493.573 191.941 474.615 173.057L455.095 153.614L462.996 145.384C468.306 139.853 472.096 134.774 474.552 129.897C478.293 122.469 483 106.18 483 100.663C483 98.037 485.135 95.431 497.5 82.967C510.139 70.226 512 67.937 512 65.13C512 60.818 508.181 57 503.868 57C501.052 57 498.703 58.924 485.246 72.25C476.776 80.638 469.42 88.28 468.897 89.233C468.375 90.186 467.495 94.686 466.941 99.233C464.911 115.895 459.163 127.882 448.144 138.436L444.035 142.372L436.624 135.186C430.354 129.107 428.685 128 425.781 128C421.299 128 418 131.403 418 136.026C418 139.144 420.437 141.865 447.722 169.206L477.445 198.989L457.722 218.802C440.824 235.777 438 239.046 438 241.633C438 245.427 441.156 248.465 446.599 249.908C461.655 253.902 467.414 270.763 457.732 282.508C446.989 295.542 427.289 290.784 422.586 274.02C421.227 269.179 420.308 267.693 417.898 266.447C416.176 265.557 413.963 265.173 412.7 265.546C411.49 265.903 400.713 275.935 388.75 287.839L367.001 309.482L347.041 289.541C328.819 271.336 326.781 269.6 323.634 269.6C318.973 269.6 317.265 271.279 315.399 277.7C312.59 287.363 304.491 294 295.508 294C283.548 294 275 285.456 275 273.5C275 263.543 280.511 256.46 290.296 253.843C296.088 252.294 299.333 249.095 299.333 244.933C299.333 242.249 296.466 238.981 277.169 219.669L255.004 197.488L301.477 151.023L347.951 104.557L346.119 110.529C345.111 113.813 340.336 129.06 335.507 144.412C326.064 174.432 325.94 175.394 331 179.152C334.556 181.793 347.362 184.263 353.483 183.489C359.671 182.707 367.691 178.99 371.187 175.284C376.122 170.052 384.762 156.052 392.634 140.532C399.956 126.094 400.694 125.021 403.303 125.011C413.324 124.972 432.688 117.437 440.882 110.388C450.617 102.013 453.252 95.161 448.545 90.455C444.392 86.301 441.073 87.12 434.491 93.925C425.367 103.357 414.837 107.928 398.5 109.549C394.65 109.93 390.911 110.715 390.192 111.292C389.473 111.869 384.879 120.278 379.983 129.979C370.232 149.302 362.739 161.487 358.609 164.735C355.592 167.108 348.83 168.578 346.673 167.329C345.496 166.648 347.448 159.536 357.602 127.5C374.503 74.179 374.022 75.959 372.489 72.311C371.083 68.967 369.342 68 364.731 68C362.045 68 359.223 70.39 343.813 85.714C334.016 95.456 326 103.129 326 102.765C326 102.401 327.113 98.593 328.473 94.302C330.941 86.514 330.973 86.473 345.723 71.828L360.5 57.155L392.5 49.579L424.5 42.003L439.75 26.687C453.111 13.269 455 10.972 455 8.141C455 3.82 451.187 0 446.873 0C444.079 0 441.799 1.831 429.577 13.887ZM177.903 256.651L160.078 274.303L155.474 269.182C152.507 265.882 148.499 262.895 144.202 260.781C138.159 257.807 136.69 257.5 128.496 257.5C120.302 257.5 118.835 257.807 112.794 260.781C97.144 268.485 89.133 285.594 93.483 302.022C94.426 305.585 95.266 309.13 95.349 309.899C95.449 310.823 92.782 312.122 87.5 313.721L79.5 316.144L61.248 334.314C49.977 345.535 42.631 353.635 42.044 355.492C41.52 357.147 38.094 371.325 34.43 387L27.767 415.5L13.884 429.577C1.832 441.798 0 444.08 0 446.873C0 451.187 3.82 455 8.141 455C10.972 455 13.267 453.112 26.682 439.75L41.992 424.5L49.548 392.5L57.105 360.5L71.803 345.717L86.5 330.935L97.572 327.467C103.662 325.56 109.038 324 109.519 324C110 324 101.305 333.158 90.197 344.351C71.823 362.865 70 365.011 70 368.128C70 372.335 72.132 375.565 75.458 376.4C77.259 376.852 90.349 372.639 122.065 361.398C152.057 350.768 166.494 346.094 167.188 346.788C168.686 348.286 167.192 355.486 164.735 358.609C161.487 362.739 149.302 370.232 129.979 379.983C120.278 384.879 111.869 389.473 111.292 390.192C110.715 390.911 109.93 394.65 109.549 398.5C107.928 414.837 103.357 425.367 93.925 434.491C87.12 441.073 86.301 444.392 90.455 448.545C95.161 453.252 102.013 450.617 110.388 440.882C117.452 432.671 125 413.249 125 403.282C125 400.677 125.903 400.011 136.75 394.625C151.677 387.214 165.185 379.293 171.757 374.098C181.845 366.124 185.455 355.216 182.616 341.293C181.744 337.017 180.19 332.389 179.163 331.009C175.212 325.701 174.54 325.815 142.322 337.244C125.92 343.063 111.6 348.155 110.5 348.56C109.4 348.965 114.013 343.677 120.75 336.809C133.909 323.396 134.829 321.595 131.007 316.736C129.723 315.103 127.194 313.766 123.892 312.974C115.145 310.876 108.011 302.128 108.011 293.5C108.011 289.334 110.223 283.816 113.296 280.316C124.441 267.622 143.516 272.504 148.399 289.3C150.265 295.721 151.973 297.4 156.634 297.4C159.78 297.4 161.806 295.677 179.802 277.698L199.522 257.996L213.735 272.248L227.948 286.5L222.53 291.263C218.838 294.509 216.06 298.167 213.806 302.748C210.767 308.926 210.5 310.239 210.5 318.985C210.5 327.313 210.839 329.19 213.218 334.033C216.699 341.121 223.916 348.324 230.962 351.742C235.757 354.068 237.775 354.433 246 354.464C254.486 354.496 256.127 354.192 261.371 351.617C267.156 348.777 274.65 342.409 276.808 338.5C277.819 336.669 279.332 337.916 294.697 353.245L311.483 369.99L297.536 383.964L283.589 397.938L278.914 392.693C261.205 372.824 230.08 377.509 218.736 401.751C216.023 407.547 215.6 409.556 215.6 416.629C215.6 424.045 215.945 425.504 219.306 432.305C222.686 439.144 226.936 444.143 231.69 446.873C233.277 447.784 231.496 449.921 217.251 464.201L201.002 480.49L170.751 450.35C154.113 433.773 139.497 419.702 138.271 419.081C133.39 416.609 127.6 420.675 127.6 426.575C127.6 429.552 128.642 431.099 134.869 437.368L142.137 444.685L134.931 451.357C130.799 455.183 125.118 459.256 121.613 460.904C114.743 464.136 104.109 466.997 98.936 467.006C91.056 467.018 88.999 468.415 72.724 484.806C58.949 498.678 57 501.041 57 503.866C57 508.181 60.816 512 65.13 512C67.937 512 70.226 510.139 82.967 497.5C95.431 485.135 98.037 483 100.663 483C106.172 483 122.464 478.295 129.871 474.565C134.623 472.172 139.846 468.302 145.107 463.276L153.111 455.628L174.806 477.295C191.91 494.377 197.206 499.101 199.837 499.623C203.116 500.273 203.623 499.835 229.587 473.871C258.034 445.424 258.496 444.771 253.75 439.715C252.512 438.397 248.957 436.562 245.848 435.639C231.44 431.358 226.463 414.515 236.296 403.316C242.378 396.389 251.595 394.236 259.5 397.896C265.257 400.561 268.925 404.956 271.406 412.16C273.791 419.088 276.832 421.77 281.069 420.685C282.406 420.343 294.037 409.507 306.917 396.607C327.557 375.931 330.333 372.777 330.333 369.999C330.333 367.21 327.294 363.807 303.924 340.424C280.186 316.673 277.185 314 274.257 314C270.457 314 267.319 316.704 266.453 320.725C263.809 332.997 255.203 339.851 243.813 338.756C233.921 337.806 226 328.955 226 318.853C226 312.786 227.349 309.309 231.311 305.165C235.093 301.209 238.176 299.507 243.207 298.596C245.45 298.19 247.72 296.9 248.957 295.328C253.2 289.933 252.777 289.323 226.727 263.273C204.653 241.198 202.15 239 199.091 239C196.074 239 193.895 240.815 177.903 256.651Z" fill="black"/>
</svg>
