<svg width="443" height="277" viewBox="0 0 443 277" fill="none" xmlns="http://www.w3.org/2000/svg">
<rect x="0.124023" y="0.5" width="442.752" height="276" fill="white"/>
<g clip-path="url(#clip0_370_72)">
<path d="M77.124 232.53H365.414V46H77.124V232.53Z" stroke="black" stroke-width="2" stroke-miterlimit="10"/>
<path d="M271.904 65.74C270.204 65.74 268.824 67.12 268.824 68.82V118.51C268.824 120.21 270.204 121.59 271.904 121.59H340.384C342.084 121.59 343.464 120.21 343.464 118.51V68.82C343.464 67.12 342.084 65.74 340.384 65.74H271.904Z" stroke="#FF0080" stroke-width="2" stroke-miterlimit="10"/>
<path d="M270.604 121.59L294.204 87.94C294.494 87.53 294.974 87.28 295.484 87.27C295.994 87.27 296.474 87.5 296.784 87.9L308.734 103.95L316.464 96.54C316.774 96.25 317.204 96.06 317.614 96.1C318.044 96.11 318.444 96.3 318.734 96.61L341.564 121.43" stroke="#FF0080" stroke-width="2" stroke-miterlimit="10"/>
<path d="M324.074 90.43C319.954 90.43 316.594 87.08 316.594 82.95C316.594 78.82 319.944 75.47 324.074 75.47C328.204 75.47 331.554 78.82 331.554 82.95C331.554 87.08 328.204 90.43 324.074 90.43Z" stroke="#FF0080" stroke-width="2" stroke-miterlimit="10"/>
<path d="M268.894 56.25H341.154" stroke="black" stroke-width="2" stroke-miterlimit="10"/>
<path d="M93.9239 120.59C92.8639 120.59 92.0039 121.45 92.0039 122.51V153.49C92.0039 154.55 92.8639 155.41 93.9239 155.41H136.624C137.684 155.41 138.544 154.55 138.544 153.49V122.51C138.544 121.45 137.684 120.59 136.624 120.59H93.9239Z" stroke="#FF0080" stroke-width="2" stroke-miterlimit="10"/>
<path d="M93.1143 155.42L107.834 134.44C108.014 134.18 108.314 134.03 108.634 134.02C108.954 134.02 109.254 134.16 109.444 134.42L116.894 144.43L121.714 139.81C121.904 139.63 122.174 139.51 122.434 139.54C122.704 139.54 122.954 139.66 123.134 139.86L137.364 155.33" stroke="#FF0080" stroke-width="2" stroke-miterlimit="10"/>
<path d="M126.454 135.99C123.884 135.99 121.794 133.9 121.794 131.33C121.794 128.76 123.884 126.67 126.454 126.67C129.024 126.67 131.114 128.76 131.114 131.33C131.114 133.9 129.024 135.99 126.454 135.99Z" stroke="#FF0080" stroke-width="2" stroke-miterlimit="10"/>
<path d="M92.0439 114.68H137.104" stroke="black" stroke-width="2" stroke-miterlimit="10"/>
<path d="M91.3042 56.25H115.134" stroke="black" stroke-width="2" stroke-miterlimit="10"/>
<path d="M269.664 131.59H341.924" stroke="black" stroke-width="2" stroke-miterlimit="10"/>
<path d="M269.664 139.28H341.924" stroke="black" stroke-width="2" stroke-miterlimit="10"/>
<path d="M269.664 146.96H341.924" stroke="black" stroke-width="2" stroke-miterlimit="10"/>
<path d="M269.664 154.65H298.104" stroke="black" stroke-width="2" stroke-miterlimit="10"/>
<path d="M269.664 165.41H341.924" stroke="black" stroke-width="2" stroke-miterlimit="10"/>
<path d="M269.664 173.1H341.924" stroke="black" stroke-width="2" stroke-miterlimit="10"/>
<path d="M269.664 199.24H341.924" stroke="black" stroke-width="2" stroke-miterlimit="10"/>
<path d="M269.664 206.93H341.924" stroke="black" stroke-width="2" stroke-miterlimit="10"/>
<path d="M269.664 216.15H341.924" stroke="black" stroke-width="2" stroke-miterlimit="10"/>
<path d="M269.664 180.79H341.924" stroke="black" stroke-width="2" stroke-miterlimit="10"/>
<path d="M269.664 188.48H298.104" stroke="black" stroke-width="2" stroke-miterlimit="10"/>
<path d="M91.3042 165.41H163.574" stroke="black" stroke-width="2" stroke-miterlimit="10"/>
<path d="M91.3042 173.1H163.574" stroke="black" stroke-width="2" stroke-miterlimit="10"/>
<path d="M91.3042 180.79H163.574" stroke="black" stroke-width="2" stroke-miterlimit="10"/>
<path d="M91.3042 188.48H119.754" stroke="black" stroke-width="2" stroke-miterlimit="10"/>
<path d="M91.3042 199.24H163.574" stroke="black" stroke-width="2" stroke-miterlimit="10"/>
<path d="M91.3042 206.93H163.574" stroke="black" stroke-width="2" stroke-miterlimit="10"/>
<path d="M91.3042 214.62H163.574" stroke="black" stroke-width="2" stroke-miterlimit="10"/>
<path d="M91.3042 222.3H119.754" stroke="black" stroke-width="2" stroke-miterlimit="10"/>
<path d="M196.624 62.3999H92.0742V73.1599H196.624V62.3999Z" stroke="black" stroke-width="2" stroke-miterlimit="10"/>
<path d="M91.3042 85.46H115.134" stroke="black" stroke-width="2" stroke-miterlimit="10"/>
<path d="M196.624 91.6101H92.0742V102.37H196.624V91.6101Z" stroke="black" stroke-width="2" stroke-miterlimit="10"/>
<path d="M221.224 56.25V217.69" stroke="black" stroke-width="2" stroke-miterlimit="10"/>
</g>
<defs>
<clipPath id="clip0_370_72">
<rect width="290.29" height="188.53" fill="white" transform="translate(76.124 45)"/>
</clipPath>
</defs>
</svg>
